<svg width="17" height="21" viewBox="0 0 17 21" fill="none" xmlns="http://www.w3.org/2000/svg">
<path d="M8.40001 0C3.78001 0 0 3.78001 0 8.40001C0 14.07 7.35001 20.475 7.66501 20.79C7.87501 20.895 8.19001 21 8.40001 21C8.61001 21 8.92501 20.895 9.13501 20.79C9.45001 20.475 16.8 14.07 16.8 8.40001C16.8 3.78001 13.02 0 8.40001 0ZM8.40001 18.585C6.19501 16.485 2.1 11.97 2.1 8.40001C2.1 4.93501 4.93501 2.1 8.40001 2.1C11.865 2.1 14.7 4.93501 14.7 8.40001C14.7 11.865 10.605 16.485 8.40001 18.585ZM8.40001 4.20001C6.09001 4.20001 4.20001 6.09001 4.20001 8.40001C4.20001 10.71 6.09001 12.6 8.40001 12.6C10.71 12.6 12.6 10.71 12.6 8.40001C12.6 6.09001 10.71 4.20001 8.40001 4.20001ZM8.40001 10.5C7.24501 10.5 6.30001 9.55502 6.30001 8.40001C6.30001 7.24501 7.24501 6.30001 8.40001 6.30001C9.55501 6.30001 10.5 7.24501 10.5 8.40001C10.5 9.55502 9.55501 10.5 8.40001 10.5Z" fill="white"/>
</svg>
