<svg width="30" height="33" viewBox="0 0 30 33" fill="none" xmlns="http://www.w3.org/2000/svg">
<path d="M14.85 3.3C13.0996 3.3 11.4208 3.99535 10.1831 5.23309C8.94536 6.47083 8.25 8.14957 8.25 9.9C8.25 11.6504 8.94536 13.3292 10.1831 14.5669C11.4208 15.8046 13.0996 16.5 14.85 16.5C16.6004 16.5 18.2792 15.8046 19.5169 14.5669C20.7546 13.3292 21.45 11.6504 21.45 9.9C21.45 8.14957 20.7546 6.47083 19.5169 5.23309C18.2792 3.99535 16.6004 3.3 14.85 3.3ZM4.95 9.9C4.95 7.27436 5.99303 4.75625 7.84964 2.89964C9.70625 1.04303 12.2244 0 14.85 0C17.4756 0 19.9937 1.04303 21.8504 2.89964C23.707 4.75625 24.75 7.27436 24.75 9.9C24.75 12.5256 23.707 15.0437 21.8504 16.9004C19.9937 18.757 17.4756 19.8 14.85 19.8C12.2244 19.8 9.70625 18.757 7.84964 16.9004C5.99303 15.0437 4.95 12.5256 4.95 9.9ZM8.25 26.4C6.93718 26.4 5.67813 26.9215 4.74982 27.8498C3.82152 28.7781 3.3 30.0372 3.3 31.35C3.3 31.7876 3.12616 32.2073 2.81673 32.5167C2.50729 32.8262 2.08761 33 1.65 33C1.21239 33 0.792709 32.8262 0.483274 32.5167C0.173839 32.2073 0 31.7876 0 31.35C0 29.162 0.869194 27.0635 2.41637 25.5164C3.96354 23.9692 6.06196 23.1 8.25 23.1H21.45C23.638 23.1 25.7365 23.9692 27.2836 25.5164C28.8308 27.0635 29.7 29.162 29.7 31.35C29.7 31.7876 29.5262 32.2073 29.2167 32.5167C28.9073 32.8262 28.4876 33 28.05 33C27.6124 33 27.1927 32.8262 26.8833 32.5167C26.5738 32.2073 26.4 31.7876 26.4 31.35C26.4 30.0372 25.8785 28.7781 24.9502 27.8498C24.0219 26.9215 22.7628 26.4 21.45 26.4H8.25Z" fill="#494B4A"/>
</svg>
