<svg width="21" height="21" viewBox="0 0 21 21" fill="none" xmlns="http://www.w3.org/2000/svg">
<path d="M19.6523 11.4921H4.59887L11.1755 18.0193C11.7011 18.541 11.7011 19.397 11.1755 19.9186C10.6499 20.4403 9.80087 20.4403 9.27528 19.9186L0.394137 11.1043C0.269204 10.9805 0.170085 10.8335 0.102458 10.6717C0.0348306 10.5099 2.12064e-05 10.3365 2.12064e-05 10.1613C2.12064e-05 9.98612 0.0348306 9.81266 0.102458 9.65086C0.170085 9.48905 0.269204 9.34207 0.394137 9.21833L9.2618 0.390588C9.38657 0.266756 9.53469 0.168527 9.69771 0.10151C9.86073 0.034493 10.0355 2.60956e-09 10.2119 0C10.3884 -2.60956e-09 10.5631 0.034493 10.7261 0.10151C10.8891 0.168527 11.0372 0.266756 11.162 0.390588C11.2868 0.51442 11.3858 0.661429 11.4533 0.823223C11.5208 0.985017 11.5556 1.15843 11.5556 1.33355C11.5556 1.50868 11.5208 1.68209 11.4533 1.84388C11.3858 2.00567 11.2868 2.15268 11.162 2.27651L4.59887 8.81707H19.6523C20.3935 8.81707 21 9.41896 21 10.1546C21 10.8902 20.3935 11.4921 19.6523 11.4921Z" fill="white"/>
</svg>
