<svg width="34" height="31" viewBox="0 0 34 31" fill="none" xmlns="http://www.w3.org/2000/svg">
<path d="M16.6963 9.78947L21.5833 14.9453V14.6842C21.5833 13.386 21.0961 12.141 20.2287 11.2231C19.3613 10.3052 18.185 9.78947 16.9583 9.78947H16.6963ZM10.0671 11.0947L12.4567 13.6237C12.3796 13.9663 12.3333 14.3089 12.3333 14.6842C12.3333 15.9824 12.8206 17.2274 13.688 18.1453C14.5553 19.0633 15.7317 19.5789 16.9583 19.5789C17.2975 19.5789 17.6367 19.53 17.9604 19.4484L20.35 21.9774C19.3171 22.5158 18.1763 22.8421 16.9583 22.8421C14.914 22.8421 12.9533 21.9826 11.5077 20.4527C10.0621 18.9228 9.25 16.8478 9.25 14.6842C9.25 13.3953 9.55833 12.1879 10.0671 11.0947ZM1.54167 2.07211L5.05667 5.79211L5.75042 6.52632C3.20667 8.64737 1.2025 11.4211 0 14.6842C2.66708 21.8468 9.25 26.9211 16.9583 26.9211C19.3479 26.9211 21.6296 26.4316 23.7108 25.5505L24.3738 26.2358L28.8754 31L30.8333 28.9279L3.49958 0M16.9583 6.52632C19.0027 6.52632 20.9634 7.38581 22.4089 8.91571C23.8545 10.4456 24.6667 12.5206 24.6667 14.6842C24.6667 15.7284 24.4662 16.74 24.1117 17.6537L28.6288 22.4342C30.9413 20.3947 32.7913 17.7189 33.9167 14.6842C31.2496 7.52158 24.6667 2.44737 16.9583 2.44737C14.8 2.44737 12.7342 2.85526 10.7917 3.58947L14.1371 7.09737C15.0158 6.73842 15.9563 6.52632 16.9583 6.52632Z" fill="black"/>
</svg>
