<svg width="40" height="40" viewBox="0 0 40 40" fill="none" xmlns="http://www.w3.org/2000/svg">
<path d="M20.0282 17.9747C19.4985 17.9747 18.9905 18.1851 18.6159 18.5596C18.2414 18.9342 18.031 19.4422 18.031 19.9719V25.9634C18.031 26.4931 18.2414 27.0011 18.6159 27.3756C18.9905 27.7502 19.4985 27.9606 20.0282 27.9606C20.5578 27.9606 21.0658 27.7502 21.4404 27.3756C21.8149 27.0011 22.0253 26.4931 22.0253 25.9634V19.9719C22.0253 19.4422 21.8149 18.9342 21.4404 18.5596C21.0658 18.1851 20.5578 17.9747 20.0282 17.9747ZM20.0282 11.9831C19.6331 11.9831 19.247 12.1002 18.9186 12.3197C18.5901 12.5392 18.3342 12.8511 18.183 13.216C18.0318 13.5809 17.9923 13.9825 18.0693 14.3699C18.1464 14.7573 18.3366 15.1132 18.6159 15.3925C18.8952 15.6718 19.2511 15.862 19.6385 15.9391C20.0259 16.0162 20.4275 15.9766 20.7924 15.8255C21.1574 15.6743 21.4693 15.4183 21.6888 15.0899C21.9082 14.7614 22.0253 14.3753 22.0253 13.9803C22.0253 13.4506 21.8149 12.9426 21.4404 12.5681C21.0658 12.1935 20.5578 11.9831 20.0282 11.9831ZM20.0282 0C17.4054 0 14.8083 0.516587 12.3853 1.52027C9.96215 2.52395 7.76047 3.99506 5.90591 5.84962C2.16046 9.59507 0.0562934 14.675 0.0562934 19.9719C0.0388337 24.5836 1.63565 29.0561 4.56993 32.614L0.575562 36.6084C0.298437 36.8893 0.110709 37.2459 0.0360659 37.6333C-0.0385772 38.0208 0.00320927 38.4216 0.156153 38.7853C0.322035 39.1447 0.590948 39.4467 0.928758 39.6529C1.26657 39.8591 1.65804 39.9604 2.05348 39.9437H20.0282C25.325 39.9437 30.4049 37.8395 34.1504 34.0941C37.8958 30.3486 40 25.2687 40 19.9719C40 14.675 37.8958 9.59507 34.1504 5.84962C30.4049 2.10417 25.325 0 20.0282 0ZM20.0282 35.9493H6.8667L8.72408 34.092C8.91279 33.907 9.06292 33.6864 9.16577 33.443C9.26862 33.1996 9.32214 32.9382 9.32323 32.674C9.31573 32.1472 9.10038 31.6447 8.72408 31.2759C6.10894 28.6637 4.48041 25.2255 4.11595 21.5472C3.7515 17.8689 4.67367 14.178 6.72535 11.1034C8.77703 8.02876 11.8313 5.7606 15.3677 4.68534C18.9042 3.61009 22.7041 3.79426 26.12 5.20649C29.5359 6.61872 32.3565 9.17163 34.1012 12.4303C35.8459 15.6889 36.4068 19.4517 35.6883 23.0775C34.9699 26.7033 33.0165 29.9679 30.1609 32.3149C27.3054 34.662 23.7245 35.9464 20.0282 35.9493Z" fill="#FFE469"/>
</svg>
