<svg width="25" height="23" viewBox="0 0 25 23" fill="none" xmlns="http://www.w3.org/2000/svg">
<path d="M12.48 0C12.7117 0.000119399 12.9388 0.06248 13.1359 0.180098C13.3329 0.297715 13.4921 0.465946 13.5957 0.665948L16.8155 6.87744L23.8914 7.86974C24.1219 7.90204 24.3385 7.99594 24.5165 8.14082C24.6946 8.2857 24.8271 8.47578 24.899 8.68954C24.971 8.90331 24.9795 9.13224 24.9236 9.35043C24.8677 9.56862 24.7497 9.76737 24.5828 9.92418L19.4324 14.7701L20.5906 21.603C20.6278 21.8241 20.6003 22.051 20.5112 22.2579C20.4221 22.4649 20.2749 22.6437 20.0863 22.7743C19.8976 22.905 19.6749 22.9822 19.4432 22.9974C19.2115 23.0126 18.98 22.965 18.7748 22.8602L12.48 19.6376L6.18528 22.8602C5.98005 22.965 5.74857 23.0126 5.51688 22.9974C5.28519 22.9822 5.06247 22.905 4.8738 22.7743C4.68512 22.6437 4.53795 22.4649 4.44886 22.2579C4.35977 22.051 4.33228 21.8241 4.36949 21.603L5.52761 14.7701L0.377248 9.92418C0.210391 9.76737 0.0923418 9.56862 0.0364559 9.35043C-0.0194301 9.13224 -0.0109226 8.90331 0.0610159 8.68954C0.132954 8.47578 0.265453 8.2857 0.443521 8.14082C0.62159 7.99594 0.838122 7.90204 1.06862 7.86974L8.14459 6.87744L11.3643 0.665948C11.4679 0.465946 11.6271 0.297715 11.8242 0.180098C12.0212 0.06248 12.2483 0.000119399 12.48 0ZM12.48 3.89694L10.0864 8.51642C9.9966 8.69015 9.86457 8.84035 9.7016 8.95421C9.53862 9.06807 9.34954 9.14221 9.15045 9.17033L3.92896 9.90251L7.73526 13.4827C7.8791 13.618 7.987 13.7847 8.04979 13.9688C8.11258 14.1528 8.1284 14.3488 8.09592 14.5401L7.23857 19.5943L11.8947 17.2099C12.075 17.1175 12.2759 17.0692 12.48 17.0692C12.6841 17.0692 12.8851 17.1175 13.0653 17.2099L17.7215 19.5943L16.8641 14.5401C16.8319 14.349 16.8478 14.1533 16.9106 13.9694C16.9734 13.7856 17.0811 13.619 17.2248 13.4839L21.0311 9.90251L15.8108 9.17033C15.6118 9.14221 15.4227 9.06807 15.2597 8.95421C15.0967 8.84035 14.9647 8.69015 14.8749 8.51642L12.48 3.89694Z" fill="#AAAAAA"/>
</svg>
