<svg width="28" height="26" viewBox="0 0 28 26" fill="none" xmlns="http://www.w3.org/2000/svg">
<path d="M14 0C14.2599 0.000133941 14.5147 0.0700897 14.7357 0.202033C14.9568 0.333975 15.1354 0.522695 15.2516 0.747056L18.8635 7.71508L26.8013 8.82823C27.0598 8.86446 27.3027 8.9698 27.5025 9.13233C27.7023 9.29485 27.8509 9.50808 27.9316 9.74788C28.0123 9.98768 28.0218 10.2445 27.9591 10.4893C27.8965 10.734 27.764 10.957 27.5768 11.1329L21.7992 16.569L23.0984 24.2341C23.1401 24.4822 23.1093 24.7367 23.0093 24.9688C22.9094 25.2009 22.7443 25.4016 22.5326 25.5481C22.321 25.6947 22.0712 25.7813 21.8112 25.7983C21.5513 25.8154 21.2917 25.762 21.0614 25.6444L14 22.0294L6.93862 25.6444C6.70839 25.762 6.44871 25.8154 6.1888 25.7983C5.92889 25.7813 5.67905 25.6947 5.4674 25.5481C5.25574 25.4016 5.09065 25.2009 4.99071 24.9688C4.89077 24.7367 4.85993 24.4822 4.90167 24.2341L6.20084 16.569L0.423194 11.1329C0.236015 10.957 0.103589 10.734 0.040896 10.4893C-0.0217965 10.2445 -0.0122529 9.98768 0.0684473 9.74788C0.149147 9.50808 0.297783 9.29485 0.49754 9.13233C0.697296 8.9698 0.9402 8.86446 1.19877 8.82823L9.13655 7.71508L12.7485 0.747056C12.8646 0.522695 13.0433 0.333975 13.2643 0.202033C13.4854 0.0700897 13.7401 0.000133941 14 0ZM14 4.37156L11.3149 9.55367C11.2141 9.74856 11.066 9.91705 10.8832 10.0448C10.7004 10.1725 10.4883 10.2557 10.2649 10.2872L4.40748 11.1086L8.67737 15.1248C8.83873 15.2765 8.95977 15.4636 9.0302 15.6701C9.10064 15.8766 9.11839 16.0964 9.08196 16.3109L8.12018 21.9807L13.3434 19.3059C13.5456 19.2023 13.7711 19.1481 14 19.1481C14.229 19.1481 14.4544 19.2023 14.6566 19.3059L19.8799 21.9807L18.9181 16.3109C18.8819 16.0966 18.8998 15.877 18.9702 15.6708C19.0406 15.4646 19.1615 15.2778 19.3227 15.1262L23.5926 11.1086L17.7365 10.2872C17.5132 10.2557 17.3011 10.1725 17.1182 10.0448C16.9354 9.91705 16.7873 9.74856 16.6865 9.55367L14 4.37156Z" fill="#4277FF"/>
</svg>
