<svg width="31" height="40" viewBox="0 0 31 40" fill="none" xmlns="http://www.w3.org/2000/svg">
<path d="M11.9868 29.6066L21.0247 20.5955C21.1319 20.4882 21.2077 20.372 21.2521 20.2469C21.2971 20.1217 21.3197 19.9876 21.3197 19.8446C21.3197 19.7016 21.2971 19.5675 21.2521 19.4423C21.2077 19.3172 21.1319 19.2009 21.0247 19.0937L11.9868 10.0558C11.7365 9.80549 11.4236 9.68033 11.0481 9.68033C10.6727 9.68033 10.3508 9.81443 10.0827 10.0826C9.81447 10.3508 9.68038 10.6637 9.68038 11.0213C9.68038 11.3788 9.81447 11.6917 10.0827 11.9599L17.9673 19.8446L10.0827 27.7293C9.83235 27.9796 9.7072 28.2878 9.7072 28.654C9.7072 29.0209 9.84129 29.3384 10.1095 29.6066C10.3777 29.8748 10.6905 30.0089 11.0481 30.0089C11.4057 30.0089 11.7186 29.8748 11.9868 29.6066Z" fill="#333333"/>
</svg>
