<svg width="322" height="182" viewBox="0 0 322 182" fill="none" xmlns="http://www.w3.org/2000/svg">
<g clip-path="url(#clip0_1_1472)">
<path d="M132.974 114.281H130.214V181.554H132.974V114.281Z" fill="#DEE8F5"/>
<path d="M157.808 114.281H155.049V181.554H157.808V114.281Z" fill="#DEE8F5"/>
<path d="M266.068 114.281H263.309V181.554H266.068V114.281Z" fill="#C1D8ED"/>
<path d="M266.069 113.438H241.183V176.955H266.069V113.438Z" fill="#C1D8ED"/>
<path d="M238.973 172.355H236.214V181.555H238.973V172.355Z" fill="#C1D8ED"/>
<path d="M269.883 111.503H126.399V115.297H269.883V111.503Z" fill="#DEE8F5"/>
<path d="M242.563 114.281H239.804V181.554H242.563V114.281Z" fill="#DEE8F5"/>
<path d="M215.469 114.281H212.709V181.554H215.469V114.281Z" fill="#DEE8F5"/>
<path d="M241.183 115.302H214.089V176.955H241.183V115.302Z" fill="#DEE8F5"/>
<path d="M133.802 161.927V165.78V181.555H113.601V165.78V161.927H133.802Z" fill="#C1D8ED"/>
<path d="M139.931 165.78H119.729V181.555H139.931V165.78Z" fill="#DEE8F5"/>
<path d="M139.931 165.78H119.729V166.962H139.931V165.78Z" fill="#C1D8ED"/>
<path d="M119.729 165.78H139.931V161.927H119.729V165.78Z" fill="#DEE8F5"/>
<path d="M127.638 171.316H132.023C132.306 171.316 132.535 171.087 132.535 170.805V169.459C132.535 169.177 132.306 168.948 132.023 168.948H127.638C127.355 168.948 127.126 169.177 127.126 169.459V170.805C127.126 171.087 127.355 171.316 127.638 171.316Z" fill="white"/>
<path d="M111.943 166.962V169.826V181.555H96.9233V169.826V166.962H111.943Z" fill="#C1D8ED"/>
<path d="M116.865 169.826H101.846V181.554H116.865V169.826Z" fill="#DEE8F5"/>
<path d="M116.865 169.826H101.846V170.705H116.865V169.826Z" fill="#C1D8ED"/>
<path d="M101.846 169.826H116.865V166.962H101.846V169.826Z" fill="#DEE8F5"/>
<path d="M107.725 173.943H110.986C111.196 173.943 111.366 173.773 111.366 173.563V172.562C111.366 172.352 111.196 172.182 110.986 172.182H107.725C107.515 172.182 107.345 172.352 107.345 172.562V173.563C107.345 173.773 107.515 173.943 107.725 173.943Z" fill="white"/>
<path d="M32.7175 43.3281H17.0337V178.522H32.7175V43.3281Z" fill="#C1D8ED"/>
<path d="M59.3266 181.555H64.3838V173.455H59.3266V181.555Z" fill="#C1D8ED"/>
<path d="M22.1909 181.555H27.248V173.455H22.1909V181.555Z" fill="#C1D8ED"/>
<path d="M32.7184 178.522H84.1196L84.1196 43.328H32.7184L32.7184 178.522Z" fill="#DEE8F5"/>
<path d="M73.0678 181.555H78.125V173.455H73.0678V181.555Z" fill="#DEE8F5"/>
<path d="M41.6167 181.555H46.6738V173.455H41.6167V181.555Z" fill="#DEE8F5"/>
<path opacity="0.53" d="M35.0345 176.229H81.8018L81.8018 112.588H35.0345L35.0345 176.229Z" fill="#F3F5FD"/>
<path opacity="0.53" d="M35.0345 65.6523H81.8018V45.6939L35.0345 45.6939V65.6523Z" fill="white"/>
<path opacity="0.53" d="M35.0345 87.8853H81.8018V67.9268H35.0345V87.8853Z" fill="white"/>
<path opacity="0.53" d="M35.0345 110.118H81.8018V90.16H35.0345V110.118Z" fill="white"/>
<path d="M57.3817 176.963H59.4551L59.4551 111.923H57.3817L57.3817 176.963Z" fill="#DEE8F5"/>
<path d="M64.5528 145.247C65.718 145.247 66.6627 144.302 66.6627 143.137C66.6627 141.971 65.718 141.027 64.5528 141.027C63.3875 141.027 62.4429 141.971 62.4429 143.137C62.4429 144.302 63.3875 145.247 64.5528 145.247Z" fill="white"/>
<path d="M52.2842 145.247C53.4495 145.247 54.3941 144.302 54.3941 143.137C54.3941 141.971 53.4495 141.027 52.2842 141.027C51.119 141.027 50.1743 141.971 50.1743 143.137C50.1743 144.302 51.119 145.247 52.2842 145.247Z" fill="white"/>
<path d="M73.0505 71.9177V75.0516V87.8853H56.5781V75.0516V71.9177H73.0505Z" fill="#C1D8ED"/>
<path d="M78.0484 75.0518H61.5757V87.8854H78.0484V75.0518Z" fill="#DEE8F5"/>
<path d="M78.0484 75.0518H61.5757V76.0137H78.0484V75.0518Z" fill="#C1D8ED"/>
<path d="M61.5761 75.052H78.0488V71.9181H61.5761V75.052Z" fill="#DEE8F5"/>
<path d="M68.0236 79.5564H71.6003C71.8305 79.5564 72.0171 79.3698 72.0171 79.1396V78.0463C72.0171 77.8161 71.8305 77.6295 71.6003 77.6295H68.0236C67.7934 77.6295 67.6068 77.8161 67.6068 78.0463V79.1396C67.6068 79.3698 67.7934 79.5564 68.0236 79.5564Z" fill="white"/>
<path d="M54.5754 74.0908V76.7979V87.8852H40.3442V76.7979V74.0908H54.5754Z" fill="#C1D8ED"/>
<path d="M59.2394 76.7981H45.0083V87.8854H59.2394V76.7981Z" fill="#DEE8F5"/>
<path d="M59.2394 76.7981H45.0083V77.6293H59.2394V76.7981Z" fill="#C1D8ED"/>
<path d="M45.0086 76.7981H59.2397V74.0907H45.0086V76.7981Z" fill="#DEE8F5"/>
<path d="M50.5791 80.6895H53.6694C53.8681 80.6895 54.0293 80.5283 54.0293 80.3295V79.3846C54.0293 79.1859 53.8681 79.0247 53.6694 79.0247H50.5791C50.3803 79.0247 50.2192 79.1859 50.2192 79.3846V80.3295C50.2192 80.5283 50.3803 80.6895 50.5791 80.6895Z" fill="white"/>
<path d="M80.7204 53.0353L78.5679 52.5264L75.8692 63.9407L78.0218 64.4496L80.7204 53.0353Z" fill="white"/>
<path d="M76.2008 51.6394L75.0059 51.8599L76.854 61.8784L78.0489 61.658L76.2008 51.6394Z" fill="#C1D8ED"/>
<path d="M76.1995 51.6361L75.0059 51.8633L75.2162 52.9684L76.4098 52.7413L76.1995 51.6361Z" fill="#DEE8F5"/>
<path d="M79.8999 54.1876L76.0273 64.0176L76.6911 64.2791L80.5636 54.4491L79.8999 54.1876Z" fill="#C1D8ED"/>
<path d="M80.7476 58.4878H74.9102V65.9483H80.7476V58.4878Z" fill="#C1D8ED"/>
<path d="M71.8224 52.6733H66.8691V65.804H71.8224V52.6733Z" fill="#C1D8ED"/>
<path d="M67.3646 50.8662H64.7144V65.8037H67.3646V50.8662Z" fill="#DEE8F5"/>
<path d="M64.7149 51.7095H60.5913V65.8037H64.7149V51.7095Z" fill="white"/>
<path d="M50.5874 51.7095H48.1782V65.8037H50.5874V51.7095Z" fill="#DEE8F5"/>
<path d="M55.3168 52.7161L50.7681 54.9312L56.042 65.7617L60.5908 63.5466L55.3168 52.7161Z" fill="#DEE8F5"/>
<path d="M48.1974 52.7529H43.2441V65.8836H48.1974V52.7529Z" fill="#C1D8ED"/>
<path d="M43.7396 50.9456H41.0894V65.883H43.7396V50.9456Z" fill="#DEE8F5"/>
<path d="M41.0899 51.7893H36.9663V65.8836H41.0899V51.7893Z" fill="#C1D8ED"/>
<path d="M69.2496 96.6524L66.9478 95.9414L62.7884 109.408L65.0903 110.119L69.2496 96.6524Z" fill="#DEE8F5"/>
<path d="M44.0328 96.988H39.0796V110.119H44.0328V96.988Z" fill="#C1D8ED"/>
<path d="M46.1864 95.1807H43.5361V110.118H46.1864V95.1807Z" fill="white"/>
<path d="M50.3101 96.0244H46.1865V110.119H50.3101V96.0244Z" fill="#DEE8F5"/>
<path d="M62.7236 96.0244H60.3145V110.119H62.7236V96.0244Z" fill="#DEE8F5"/>
<path d="M60.1337 99.2885L55.585 97.0735L50.311 107.904L54.8598 110.119L60.1337 99.2885Z" fill="white"/>
<path d="M70.4698 103.1C70.5194 103.19 70.5862 103.269 70.6664 103.332C70.7466 103.396 70.8385 103.443 70.937 103.472C71.0354 103.5 71.1385 103.508 71.2402 103.497C71.3419 103.485 71.4404 103.453 71.5299 103.403C71.6595 103.36 71.7979 103.35 71.9325 103.374C72.067 103.398 72.1934 103.456 72.2998 103.542C72.6513 103.804 72.8966 104.185 72.9909 104.613H77.0971C77.1124 104.366 77.1442 104.12 77.1923 103.876C77.3027 103.212 77.6159 102.599 78.0887 102.12C78.2012 101.997 78.3518 101.916 78.5161 101.89C78.6081 101.935 78.708 101.962 78.8101 101.968C78.9123 101.975 79.0148 101.961 79.1116 101.928C79.2085 101.895 79.2979 101.843 79.3747 101.775C79.4515 101.707 79.5142 101.625 79.5593 101.533C79.6044 101.441 79.6309 101.341 79.6373 101.239C79.6438 101.137 79.6301 101.035 79.5969 100.938C79.5638 100.841 79.5119 100.752 79.4442 100.675C79.3765 100.598 79.2944 100.535 79.2024 100.49C78.5416 100.161 77.7085 100.347 77.0312 100.974C76.8211 101.169 76.6327 101.385 76.4692 101.62C76.5316 101.222 76.6288 100.83 76.7597 100.449C76.9163 99.9681 77.2039 99.5404 77.5903 99.214C77.7507 99.0872 77.8549 98.9025 77.8806 98.6996C77.9063 98.4967 77.8513 98.2919 77.7276 98.1291C77.6038 97.9663 77.4212 97.8585 77.2188 97.8289C77.0165 97.7993 76.8106 97.8503 76.6455 97.9709C76.0156 98.477 75.5449 99.1538 75.2896 99.9204C75.2619 99.9978 75.2351 100.076 75.2112 100.156C74.727 98.9464 74.2282 97.9228 73.2249 97.333C73.0465 97.2281 72.8336 97.1984 72.6333 97.2504C72.4329 97.3024 72.2614 97.4319 72.1564 97.6103C72.0515 97.7888 72.0218 98.0016 72.0738 98.202C72.1258 98.4024 72.2553 98.5739 72.4337 98.6788C73.0471 99.0391 73.4128 99.8519 73.826 100.896C73.3704 100.369 72.8246 99.928 72.2142 99.593C72.1242 99.543 72.0252 99.5113 71.9228 99.4998C71.8205 99.4883 71.7169 99.4971 71.618 99.5258C71.5191 99.5545 71.4269 99.6024 71.3466 99.6669C71.2664 99.7314 71.1996 99.8112 71.1504 99.9016C71.1011 99.992 71.0702 100.091 71.0594 100.194C71.0487 100.296 71.0583 100.4 71.0878 100.498C71.1172 100.597 71.1659 100.689 71.231 100.769C71.2962 100.848 71.3764 100.914 71.4672 100.963C71.9428 101.225 72.3645 101.574 72.7101 101.993C72.4039 101.857 72.0713 101.79 71.7364 101.798C71.4014 101.806 71.0724 101.889 70.7732 102.04C70.5925 102.14 70.4591 102.308 70.4022 102.507C70.3453 102.706 70.3696 102.919 70.4698 103.1Z" fill="#8DDBE0"/>
<path d="M78.6318 104.614H71.3779V106.723H78.6318V104.614Z" fill="#DEE8F5"/>
<path d="M71.3784 106.721V109.034C71.3785 109.321 71.4928 109.597 71.6961 109.8C71.8994 110.004 72.1752 110.118 72.4627 110.118H77.5486C77.8362 110.118 78.1119 110.004 78.3153 109.8C78.5186 109.597 78.6329 109.321 78.633 109.034V106.721H71.3784Z" fill="#C1D8ED"/>
<path d="M293.484 163.365C290.854 162.611 288.875 160.258 288.089 157.638C287.303 155.018 287.58 152.175 288.347 149.549C288.974 147.407 289.924 145.336 290.158 143.116C290.937 135.723 283.767 128.169 287.142 121.547C288.233 119.405 290.344 117.731 290.721 115.357C291.033 113.394 290.065 111.486 289.585 109.557C288.923 106.902 289.258 103.89 290.98 101.764C292.703 99.6387 295.957 98.71 298.33 100.071C301.434 101.852 301.703 106.247 300.906 109.736C300.108 113.224 298.629 116.813 299.604 120.255C300.533 123.537 303.556 126.008 304.098 129.375C304.55 132.175 303.183 134.904 302.581 137.675C301.638 142.03 302.598 146.545 302.639 151C302.681 155.456 301.424 160.453 293.484 163.365Z" fill="#8DDBE0"/>
<path d="M289.427 163.789C287.862 163.292 286.458 162.387 285.358 161.168C284.259 159.948 283.503 158.458 283.17 156.851C282.656 154.199 283.287 151.221 281.836 148.942C279.87 145.855 277.853 145.506 275.405 142.785C271.641 138.602 271.509 136.749 271.757 129.001C271.862 125.725 267.338 122.029 268.932 118.879C270.335 116.106 274.602 116.091 277.022 118.043C279.442 119.995 280.505 123.123 281.559 126.049C282.614 128.975 283.943 132.067 286.616 133.655C288.219 134.607 290.317 135.047 291.203 136.687C291.913 138.005 291.555 139.615 291.27 141.085C290.551 144.781 290.731 149.29 293.833 151.425C295.232 152.388 297.065 152.72 298.215 153.969C299.353 155.206 299.536 157.036 299.46 158.715C299.308 161.941 298.419 165.089 296.861 167.918" fill="#DEE8F5"/>
<path d="M293.167 166.363C290.375 163.172 289.98 158.117 292.243 154.531C294.142 151.522 297.681 149.45 298.424 145.971C299.086 142.872 297.25 139.669 297.8 136.549C298.397 133.155 301.532 130.928 304.023 128.547C304.671 127.967 305.228 127.294 305.677 126.55C306.772 124.578 306.466 122.159 306.839 119.936C307.551 115.675 311.06 111.898 315.321 111.193C319.059 110.576 321.736 112.723 321.736 116.676C321.736 121.36 318.227 123.367 316.437 125.489C313.866 128.56 312.501 132.461 312.599 136.465C312.725 140.936 314.629 145.697 312.595 149.681C311.102 152.604 307.914 154.163 305.409 156.285C303.516 157.907 301.975 159.899 300.881 162.139C299.786 164.379 299.162 166.819 299.047 169.309" fill="#F3F5FD"/>
<path d="M305.221 159.019H282.685V181.555H305.221V159.019Z" fill="#0CBC8B"/>
<path opacity="0.42" d="M305.221 163.413H282.685V167.812H305.221V163.413Z" fill="white"/>
<path d="M223.035 31.7526C228.191 31.7526 232.371 27.5727 232.371 22.4166C232.371 17.2604 228.191 13.0806 223.035 13.0806C217.879 13.0806 213.699 17.2604 213.699 22.4166C213.699 27.5727 217.879 31.7526 223.035 31.7526Z" fill="#C1D8ED"/>
<path d="M221.132 31.7526C226.288 31.7526 230.468 27.5727 230.468 22.4166C230.468 17.2604 226.288 13.0806 221.132 13.0806C215.976 13.0806 211.796 17.2604 211.796 22.4166C211.796 27.5727 215.976 31.7526 221.132 31.7526Z" fill="#DEE8F5"/>
<path d="M221.132 30.3769C225.529 30.3769 229.093 26.8128 229.093 22.4163C229.093 18.0199 225.529 14.4558 221.132 14.4558C216.736 14.4558 213.172 18.0199 213.172 22.4163C213.172 26.8128 216.736 30.3769 221.132 30.3769Z" fill="#F3F5FD"/>
<path d="M221.132 16.8887V22.7706L224.973 20.6113" stroke="#DEE8F5" stroke-width="0.761189" stroke-linecap="round" stroke-linejoin="round"/>
<path d="M254.32 69.9819H216.305C214.641 69.9819 213.292 71.3311 213.292 72.9954V101.926C213.292 103.591 214.641 104.94 216.305 104.94H254.32C255.984 104.94 257.333 103.591 257.333 101.926V72.9954C257.333 71.3311 255.984 69.9819 254.32 69.9819Z" fill="#F3F5FD"/>
<path d="M240.349 99.3418H230.276V110.744H240.349V99.3418Z" fill="#F3F5FD"/>
<path d="M244.623 108.626H227.044C226.27 108.626 225.643 109.253 225.643 110.027V110.027C225.643 110.801 226.27 111.428 227.044 111.428H244.623C245.397 111.428 246.024 110.801 246.024 110.027V110.027C246.024 109.253 245.397 108.626 244.623 108.626Z" fill="#F3F5FD"/>
<path d="M256.416 69.9819H218.401C216.736 69.9819 215.387 71.3311 215.387 72.9954V101.926C215.387 103.591 216.736 104.94 218.401 104.94H256.416C258.08 104.94 259.429 103.591 259.429 101.926V72.9954C259.429 71.3311 258.08 69.9819 256.416 69.9819Z" fill="#DEE8F5"/>
<path d="M242.444 99.3418H232.371V110.744H242.444V99.3418Z" fill="#DEE8F5"/>
<path d="M246.719 108.626H229.139C228.365 108.626 227.738 109.253 227.738 110.027V110.027C227.738 110.801 228.365 111.428 229.139 111.428H246.719C247.492 111.428 248.119 110.801 248.119 110.027V110.027C248.119 109.253 247.492 108.626 246.719 108.626Z" fill="#DEE8F5"/>
<path d="M164.882 34.5973C163.414 34.1209 161.833 34.1209 160.365 34.5973C159.371 34.9305 158.506 35.5664 157.892 36.4159C157.277 37.2654 156.944 38.2859 156.939 39.3343C156.978 39.9411 157.17 40.5283 157.497 41.0407C157.825 41.553 158.277 41.9739 158.812 42.2638C159.759 42.748 161.184 42.85 162.013 42.0737C162.645 41.4819 162.613 40.4661 162.206 39.7607C161.555 38.6338 160.132 38.1757 158.896 38.3326C158.192 38.4337 157.515 38.6754 156.906 39.0432C156.296 39.411 155.767 39.8975 155.349 40.4738C154.955 41.0189 154.669 41.6348 154.507 42.288C154.321 42.9073 154.33 43.5687 154.533 44.1826C154.577 44.3222 154.672 44.44 154.799 44.512C154.926 44.584 155.076 44.6047 155.218 44.57C155.359 44.5297 155.479 44.4353 155.552 44.3073C155.624 44.1792 155.644 44.0277 155.605 43.8856C155.536 43.7277 155.497 43.5583 155.491 43.3862C155.48 43.1737 155.497 42.9608 155.54 42.7525C155.639 42.2711 155.819 41.8101 156.073 41.389C156.585 40.5499 157.378 39.919 158.31 39.6077C159.202 39.3094 160.255 39.3123 160.971 39.9883C161.105 40.1081 161.214 40.2526 161.292 40.4138C161.302 40.4318 161.335 40.5132 161.297 40.4173C161.314 40.4609 161.329 40.5051 161.342 40.55C161.351 40.5784 161.358 40.6068 161.365 40.6355C161.374 40.6743 161.387 40.8525 161.379 40.6894C161.381 40.734 161.42 40.9964 161.379 41.0216C161.367 41.029 161.411 40.8634 161.387 40.9609C161.382 40.9777 161.382 40.9958 161.377 41.0122C161.367 41.0595 161.353 41.1061 161.337 41.1517C161.266 41.2679 161.158 41.3575 161.031 41.4067C161.113 41.3683 160.947 41.4358 160.948 41.4355C160.914 41.4458 160.879 41.4545 160.844 41.4629C160.742 41.4897 160.638 41.5058 160.532 41.511C160.351 41.5237 160.169 41.519 159.989 41.4968C159.796 41.4622 159.608 41.4059 159.428 41.3289C159.033 41.1371 158.697 40.8432 158.455 40.4777C158.213 40.1123 158.073 39.6886 158.05 39.2507C158.061 38.7526 158.173 38.2619 158.379 37.8087C158.462 37.6248 158.556 37.4464 158.661 37.2744C158.752 37.121 158.855 36.9746 158.969 36.8367C159.085 36.6998 159.209 36.5704 159.341 36.4493C159.405 36.3902 159.47 36.3334 159.539 36.2782C159.671 36.1711 159.454 36.3383 159.591 36.2392C159.632 36.2091 159.674 36.1791 159.716 36.1504C159.864 36.051 160.016 35.9604 160.174 35.8792C160.256 35.8369 160.339 35.7976 160.423 35.7598C160.441 35.752 160.52 35.7194 160.428 35.7575C160.482 35.7356 160.536 35.7146 160.589 35.693C160.953 35.5634 161.328 35.4694 161.709 35.4124C161.869 35.3869 161.594 35.4228 161.754 35.4066C161.802 35.4021 161.851 35.396 161.898 35.3915C161.995 35.3824 162.089 35.3756 162.185 35.3705C162.373 35.3608 162.561 35.3584 162.749 35.3634C162.931 35.3679 163.112 35.3787 163.293 35.3957C163.332 35.3995 163.601 35.4334 163.448 35.4118C163.532 35.4234 163.615 35.4363 163.698 35.4505C163.998 35.5021 164.295 35.574 164.585 35.6659C165.269 35.8844 165.562 34.8104 164.881 34.5928L164.882 34.5973Z" fill="#0CBC8B"/>
<path d="M58.6045 14.184C60.0249 13.6736 61.5059 14.7053 62.1728 15.9688C62.8304 17.2142 62.6771 18.9932 61.3907 19.7899C60.8441 20.1286 60.0784 20.2419 59.6016 19.8074C59.1045 19.3554 59.1349 18.7896 59.6262 18.3363C59.7413 18.2331 59.8668 18.142 60.0006 18.0645C60.0784 18.0177 60.1578 17.9732 60.2392 17.9325C60.2689 17.9176 60.2992 17.9034 60.3293 17.8889C60.4119 17.8502 60.2092 17.9325 60.359 17.8766C60.4792 17.8314 60.6019 17.7934 60.7266 17.7627C60.786 17.7485 60.8458 17.7356 60.9058 17.7246C60.9403 17.7181 60.9752 17.7123 61.0101 17.7068C60.8948 17.7249 61.0653 17.7017 61.0746 17.701C61.3574 17.675 61.6422 17.6796 61.9239 17.7149C62.0179 17.7269 61.8484 17.703 61.9423 17.7185C61.9795 17.7249 62.0166 17.7311 62.0534 17.7378C62.118 17.7501 62.1825 17.7637 62.2471 17.7785C62.4043 17.8154 62.5594 17.8608 62.7116 17.9147C62.7549 17.9299 62.8859 17.9793 62.885 17.9793C62.8385 17.9599 62.9247 17.9974 62.9237 17.9967C62.9586 18.0125 62.9931 18.029 63.0276 18.0455C63.1737 18.1164 63.3155 18.196 63.4521 18.2837C63.6867 18.4317 63.8989 18.6125 64.0823 18.8205C64.2623 19.0228 64.4115 19.2504 64.5252 19.4962C64.5479 19.5414 64.5672 19.5882 64.5829 19.6363C64.6152 19.7302 64.6475 19.8258 64.674 19.922C64.7349 20.1292 64.7806 20.3407 64.8105 20.5547C64.9079 21.3414 64.7825 22.1397 64.4487 22.8587C64.115 23.5777 63.5861 24.1887 62.9224 24.6221C62.6574 24.7876 62.3568 24.8877 62.0455 24.914C61.7342 24.9402 61.4211 24.892 61.1321 24.7732C61.0522 24.7347 60.9754 24.6903 60.9023 24.6402C60.8144 24.5814 60.9432 24.6812 60.8926 24.6344C60.8797 24.6221 60.8661 24.6102 60.8535 24.5972C60.8409 24.5843 60.8212 24.5617 60.8061 24.544C60.9513 24.7054 60.8228 24.574 60.8319 24.5698C60.8192 24.5497 60.8078 24.5289 60.7977 24.5075C60.8299 24.5559 60.8222 24.6044 60.8077 24.5236C60.8038 24.504 60.7728 24.3426 60.7828 24.4339C60.7922 24.5195 60.7847 24.3797 60.7828 24.3519C60.7809 24.3242 60.7867 24.2977 60.7873 24.2706C60.7873 24.2919 60.7592 24.3913 60.7851 24.2925C60.8022 24.228 60.8144 24.1618 60.8357 24.0969C60.8461 24.0646 60.9032 23.9355 60.859 24.0281C60.8884 23.9658 60.92 23.9048 60.9558 23.8454C60.9917 23.786 61.033 23.7208 61.0753 23.6611C61.0798 23.655 61.1373 23.5804 61.0937 23.6353C61.1185 23.603 61.145 23.5736 61.1715 23.5433C61.4019 23.2847 61.6711 23.0636 61.9695 22.8876C62.0611 22.8324 62.1548 22.7792 62.2503 22.7308C62.2826 22.7146 62.4324 22.6507 62.31 22.6985C62.4273 22.6522 62.5471 22.6128 62.669 22.5806C62.9153 22.5069 63.1715 22.4719 63.4286 22.477C63.5737 22.4748 63.7188 22.4802 63.8634 22.4932C63.9123 22.4943 63.9609 22.5008 64.0083 22.5125C64.0965 22.5287 64.1839 22.5468 64.2708 22.5693C64.5602 22.6354 64.8328 22.7605 65.0717 22.9367C65.5126 23.2931 65.8231 23.7856 65.9546 24.3371C66.1039 24.9117 66.1175 25.5133 65.9943 26.0941C65.8794 26.6685 65.6278 27.2068 65.2608 27.6633C65.0746 27.8893 64.8554 28.086 64.6107 28.247C64.0132 28.6369 64.5704 29.6008 65.1727 29.208C65.8457 28.7416 66.3852 28.1074 66.7376 27.3683C67.09 26.6292 67.2432 25.8108 67.1819 24.9943C67.1429 24.1691 66.8654 23.3729 66.3829 22.7023C65.8624 22.0171 65.0963 21.5606 64.2459 21.4289C63.4467 21.2845 62.6228 21.3765 61.8751 21.6936C61.1274 22.0107 60.4885 22.5391 60.0368 23.214C59.6853 23.7712 59.5106 24.5333 59.8699 25.1312C60.326 25.8898 61.4275 26.1038 62.2387 26.0044C63.2161 25.8433 64.0926 25.3088 64.6833 24.5136C65.3774 23.6972 65.8129 22.6927 65.9342 21.628C66.043 20.6369 65.8544 19.6359 65.3922 18.7524C65.0035 18.0771 64.4313 17.5259 63.742 17.1626C62.423 16.4524 60.7166 16.3175 59.4083 17.1216C58.5522 17.6474 57.8817 18.5742 58.2029 19.6195C58.355 20.0894 58.6547 20.4976 59.0575 20.7833C59.4603 21.069 59.9447 21.217 60.4384 21.2051C62.5557 21.1693 63.8924 18.9535 63.6439 17.0086C63.3856 14.9894 61.7361 13.1807 59.6791 12.9522C59.2162 12.9007 58.7476 12.9551 58.3088 13.1113C58.1687 13.154 58.0504 13.2488 57.9783 13.3762C57.9062 13.5037 57.8858 13.654 57.9214 13.796C57.962 13.9373 58.0565 14.0571 58.1844 14.1295C58.3124 14.202 58.4637 14.2213 58.6058 14.1834L58.6045 14.184Z" fill="#0CBC8B"/>
<path d="M83.8193 49.4957C85.441 49.3435 86.9656 48.6547 88.1518 47.5385C88.8336 46.8741 89.3087 46.0267 89.5199 45.0984C89.7833 43.9511 89.6784 42.5895 89.0218 41.5911C88.7148 41.1454 88.3111 40.775 87.8408 40.5074C87.3705 40.2398 86.8458 40.082 86.306 40.0458C85.273 40.0019 83.9562 40.4593 83.514 41.4758C83.1589 42.2883 83.5979 43.2532 84.299 43.7261C85.4108 44.476 86.8618 44.303 87.9623 43.627C88.5605 43.241 89.0747 42.7383 89.4741 42.1489C89.8734 41.5595 90.1498 40.8955 90.2865 40.1968C90.5267 38.9608 90.3834 37.4268 89.4472 36.5013C89.331 36.4108 89.1838 36.3697 89.0374 36.3869C88.8911 36.4041 88.7574 36.4783 88.6654 36.5933C88.5772 36.7105 88.5376 36.8571 88.5548 37.0027C88.5719 37.1483 88.6445 37.2817 88.7574 37.3752C88.6738 37.2925 88.7968 37.4252 88.8023 37.432C88.8258 37.4617 88.8481 37.4927 88.8697 37.524C88.9115 37.5804 88.947 37.6412 88.9756 37.7054C89.0665 37.9008 89.1357 38.1056 89.1819 38.3161C89.2731 38.7634 89.2928 39.2224 89.2403 39.6758C89.1209 40.6652 88.6526 41.5796 87.9197 42.2548C87.2276 42.8846 86.2821 43.3107 85.3543 43.0169C85.1672 42.9647 84.9937 42.8722 84.8462 42.7458C84.8178 42.7222 84.79 42.6973 84.7632 42.6718C84.8491 42.7538 84.7358 42.6396 84.7261 42.6273C84.7061 42.6024 84.6864 42.5766 84.6677 42.5505C84.649 42.5243 84.5521 42.3519 84.6238 42.4936C84.5754 42.3968 84.5544 42.2758 84.5021 42.1857C84.505 42.1909 84.5179 42.3148 84.5073 42.2022C84.4973 42.1446 84.4951 42.086 84.5008 42.0278C84.5276 41.8438 84.4911 42.0459 84.5228 41.9471C84.5273 41.9339 84.5834 41.8164 84.5502 41.8758C84.5779 41.8329 84.6081 41.7916 84.6406 41.7522C84.6535 41.735 84.741 41.6418 84.6748 41.7063C84.8111 41.5815 84.9649 41.4773 85.1312 41.3967C85.4653 41.2169 85.8418 41.131 86.2207 41.1482C86.142 41.1453 86.264 41.1533 86.2814 41.1553C86.3298 41.1611 86.3783 41.1653 86.4264 41.1721C86.5234 41.1859 86.6195 41.2053 86.7143 41.2302C86.6497 41.2127 86.743 41.2389 86.7485 41.2408C86.8057 41.2589 86.8622 41.2799 86.918 41.3018C87.0222 41.344 87.1243 41.3914 87.2237 41.4439C87.5826 41.6389 87.8909 41.9153 88.1237 42.2509C88.6241 43.0143 88.6128 44.0848 88.4188 44.9302C88.3952 45.0326 88.381 45.0832 88.3645 45.1352C88.3355 45.2269 88.3032 45.3174 88.2677 45.4067C88.1986 45.5802 88.1185 45.7492 88.0278 45.9125C87.941 46.0694 88.0846 45.8267 87.9897 45.9771C87.9704 46.0094 87.9507 46.0384 87.9307 46.0688C87.8806 46.144 87.8283 46.2179 87.7738 46.2899C87.6553 46.4466 87.527 46.5956 87.3896 46.736C87.3651 46.7615 87.3399 46.7867 87.3147 46.8116C87.3977 46.7302 87.265 46.8558 87.2482 46.871C87.1759 46.9355 87.102 46.998 87.0265 47.0585C86.863 47.1895 86.6925 47.3114 86.5158 47.4239C86.4354 47.4753 86.3544 47.523 86.2721 47.5718C86.2482 47.586 86.1481 47.6418 86.2456 47.5883C86.2007 47.6128 86.1552 47.6367 86.1097 47.6599C85.9306 47.7518 85.7477 47.836 85.5609 47.9124C85.2311 48.0458 84.8928 48.1573 84.5482 48.2461C84.5179 48.2542 84.4169 48.2765 84.5376 48.2494C84.4953 48.2587 84.453 48.2684 84.4104 48.2775C84.3282 48.2949 84.2458 48.3109 84.1631 48.3256C84.0101 48.352 83.8565 48.3729 83.7022 48.3882C83.5582 48.4071 83.4273 48.4814 83.3374 48.5954C83.2475 48.7094 83.2057 48.854 83.2208 48.9984C83.236 49.1428 83.3069 49.2756 83.4185 49.3684C83.5302 49.4613 83.6736 49.5068 83.8184 49.4954L83.8193 49.4957Z" fill="#0CBC8B"/>
<path d="M74.4488 3.51286L72.6831 4.64819L75.3717 8.82971L77.1375 7.69439L74.4488 3.51286Z" fill="#0CBC8B"/>
<path d="M120.743 49.2911L117.707 53.8757L119.457 55.0349L122.493 50.4503L120.743 49.2911Z" fill="#0CBC8B"/>
<path d="M177.907 58.8279L175.869 59.3311L177.171 64.6078L179.209 64.1047L177.907 58.8279Z" fill="#0CBC8B"/>
<path d="M28.4966 37.8327L24.5723 42.479L26.1758 43.8333L30.1001 39.1871L28.4966 37.8327Z" fill="#0CBC8B"/>
<path d="M151.088 10.6713C149.667 10.1609 148.187 11.1929 147.519 12.4564C146.862 13.7018 147.015 15.4805 148.301 16.2772C148.848 16.6158 149.614 16.7291 150.091 16.2946C150.588 15.8427 150.558 15.2771 150.066 14.8236C149.951 14.7207 149.825 14.6297 149.692 14.5521C149.614 14.5053 149.534 14.4608 149.453 14.4198C149.424 14.4049 149.393 14.3907 149.363 14.3765C149.281 14.3374 149.483 14.4198 149.333 14.3642C149.213 14.3191 149.09 14.281 148.966 14.2503C148.906 14.2358 148.847 14.2232 148.787 14.2119C148.752 14.2054 148.717 14.1999 148.682 14.1944C148.798 14.2125 148.627 14.1893 148.618 14.1883C148.335 14.1624 148.05 14.1671 147.768 14.2025C147.675 14.2141 147.844 14.1902 147.75 14.2061C147.713 14.2122 147.676 14.2183 147.639 14.2254C147.574 14.2375 147.51 14.251 147.445 14.2661C147.288 14.3028 147.133 14.3482 146.98 14.402C146.937 14.4175 146.806 14.4666 146.807 14.4666C146.853 14.4469 146.767 14.4843 146.768 14.484C146.734 14.4998 146.699 14.5163 146.664 14.5327C146.518 14.6038 146.377 14.6832 146.24 14.7707C146.005 14.9188 145.793 15.0997 145.61 15.3078C145.43 15.5098 145.28 15.7374 145.167 15.9831C145.144 16.0284 145.125 16.0754 145.109 16.1236C145.075 16.2175 145.045 16.313 145.018 16.4089C144.957 16.6162 144.911 16.8277 144.881 17.0416C144.784 17.8284 144.909 18.6267 145.243 19.3457C145.577 20.0647 146.106 20.6757 146.77 21.109C147.035 21.2747 147.335 21.3748 147.646 21.401C147.958 21.4273 148.271 21.379 148.56 21.2601C148.64 21.2219 148.717 21.1774 148.79 21.1271C148.878 21.0684 148.749 21.1684 148.799 21.1213C148.812 21.109 148.826 21.0971 148.839 21.0842C148.851 21.0713 148.871 21.049 148.886 21.0313C148.741 21.1927 148.869 21.061 148.86 21.0571C148.873 21.0369 148.884 21.0161 148.894 20.9948C148.862 21.0432 148.87 21.0916 148.884 21.0106C148.888 20.9909 148.919 20.8298 148.909 20.9209C148.9 21.0064 148.907 20.8666 148.909 20.8389C148.912 20.8111 148.905 20.7849 148.904 20.7575C148.904 20.7788 148.933 20.8786 148.907 20.7798C148.89 20.7152 148.877 20.6487 148.856 20.5842C148.846 20.5519 148.789 20.4228 148.833 20.5154C148.804 20.4531 148.772 20.3921 148.736 20.3327C148.7 20.2733 148.659 20.2081 148.617 20.148C148.612 20.1419 148.555 20.0673 148.598 20.1225C148.574 20.0903 148.547 20.0606 148.521 20.0305C148.29 19.7718 148.021 19.5506 147.722 19.3749C147.631 19.3197 147.537 19.2664 147.442 19.218C147.41 19.2016 147.26 19.138 147.382 19.1857C147.265 19.1393 147.145 19.0999 147.023 19.0676C146.777 18.9939 146.521 18.9591 146.264 18.9643C146.118 18.962 145.973 18.9673 145.829 18.9801C145.78 18.9812 145.731 18.9877 145.683 18.9995C145.595 19.0156 145.508 19.0337 145.421 19.0563C145.132 19.1228 144.859 19.2483 144.619 19.4249C144.179 19.7816 143.868 20.2739 143.737 20.8253C143.587 21.4 143.574 22.0015 143.697 22.5824C143.812 23.1568 144.064 23.695 144.431 24.1515C144.617 24.3775 144.836 24.5743 145.08 24.7352C145.678 25.1251 145.121 26.091 144.519 25.6962C143.846 25.2299 143.306 24.5958 142.954 23.8567C142.601 23.1177 142.448 22.2994 142.509 21.4829C142.548 20.6577 142.826 19.8615 143.309 19.1909C143.829 18.5057 144.595 18.0492 145.446 17.9177C146.245 17.7732 147.069 17.8651 147.817 18.1821C148.564 18.4992 149.203 19.0276 149.655 19.7026C150.007 20.2597 150.181 21.0219 149.822 21.6197C149.366 22.3783 148.264 22.5927 147.453 22.4913C146.476 22.3305 145.599 21.7961 145.009 21.0009C144.315 20.1842 143.879 19.1793 143.758 18.1143C143.649 17.1232 143.838 16.122 144.3 15.2384C144.689 14.5633 145.261 14.0122 145.95 13.6489C147.269 12.9387 148.976 12.8034 150.284 13.6076C151.14 14.1337 151.811 15.0602 151.49 16.1055C151.337 16.5754 151.038 16.9836 150.635 17.2693C150.232 17.5551 149.747 17.703 149.254 17.6911C147.136 17.6553 145.801 15.4395 146.049 13.4946C146.305 11.4757 147.956 9.66701 150.013 9.43846C150.476 9.3871 150.945 9.44141 151.384 9.59728C151.524 9.64 151.642 9.73486 151.714 9.86228C151.786 9.9897 151.807 10.1399 151.771 10.282C151.73 10.4234 151.636 10.5433 151.508 10.6157C151.38 10.6882 151.228 10.7075 151.086 10.6693L151.088 10.6713Z" fill="#0CBC8B"/>
<path d="M112.697 35.3394C111.075 35.1872 109.551 34.4986 108.364 33.3825C107.683 32.7179 107.208 31.8704 106.996 30.942C106.733 29.7951 106.838 28.4331 107.494 27.4347C107.801 26.989 108.205 26.6185 108.675 26.3509C109.146 26.0833 109.671 25.9256 110.21 25.8894C111.242 25.8455 112.56 26.3029 113.002 27.3194C113.357 28.132 112.918 29.0968 112.217 29.5698C111.105 30.32 109.654 30.147 108.554 29.471C107.956 29.0848 107.441 28.582 107.042 27.9926C106.643 27.4031 106.366 26.7392 106.23 26.0405C105.989 24.8044 106.133 23.2704 107.069 22.3449C107.185 22.2545 107.332 22.2134 107.479 22.2307C107.625 22.2479 107.759 22.322 107.851 22.4369C107.939 22.5541 107.978 22.7007 107.961 22.8463C107.944 22.9919 107.872 23.1253 107.759 23.2188C107.842 23.1361 107.719 23.2688 107.714 23.2756C107.691 23.3053 107.668 23.3363 107.646 23.3676C107.605 23.424 107.569 23.4849 107.541 23.549C107.45 23.7444 107.38 23.9492 107.334 24.1598C107.243 24.6071 107.223 25.066 107.276 25.5195C107.395 26.5088 107.863 27.4232 108.596 28.0984C109.289 28.7285 110.234 29.1546 111.162 28.8605C111.349 28.8084 111.522 28.7158 111.67 28.5894C111.698 28.5658 111.726 28.541 111.753 28.5155C111.667 28.5975 111.78 28.4832 111.79 28.4709C111.81 28.4461 111.83 28.4202 111.848 28.3941C111.867 28.3679 111.964 28.1956 111.892 28.3373C111.941 28.2404 111.962 28.1197 112.014 28.0296C112.011 28.0348 111.998 28.1588 112.009 28.0458C112.019 27.9882 112.021 27.9296 112.015 27.8715C111.989 27.6875 112.025 27.8895 111.993 27.7911C111.989 27.7775 111.933 27.662 111.966 27.7194C111.938 27.6765 111.908 27.6352 111.876 27.5958C111.863 27.5787 111.775 27.4857 111.841 27.5499C111.705 27.4251 111.551 27.3208 111.385 27.2404C111.051 27.0605 110.674 26.9746 110.295 26.9918C110.374 26.9889 110.252 26.997 110.235 26.9989C110.186 27.0047 110.138 27.0089 110.09 27.0157C109.993 27.0295 109.897 27.0489 109.802 27.0738C109.866 27.0564 109.773 27.0825 109.768 27.0844C109.71 27.1028 109.654 27.1235 109.598 27.1458C109.494 27.1877 109.392 27.235 109.292 27.2875C108.934 27.4827 108.625 27.7591 108.392 28.0945C107.892 28.858 107.903 29.9284 108.097 30.7739C108.121 30.8762 108.135 30.9269 108.152 30.9788C108.181 31.0705 108.213 31.161 108.248 31.2503C108.317 31.4239 108.398 31.5929 108.488 31.7562C108.575 31.9131 108.431 31.6703 108.526 31.8207C108.546 31.853 108.565 31.8824 108.585 31.9124C108.636 31.9879 108.688 32.0617 108.742 32.1335C108.861 32.2903 108.989 32.4393 109.126 32.5797C109.151 32.6052 109.176 32.6303 109.201 32.6552C109.118 32.5738 109.251 32.6994 109.268 32.7146C109.34 32.7792 109.414 32.8417 109.49 32.9021C109.653 33.0331 109.824 33.1551 110 33.2676C110.081 33.3189 110.162 33.367 110.244 33.4157C110.268 33.4296 110.368 33.4855 110.271 33.4319C110.315 33.4567 110.361 33.4803 110.406 33.5035C110.585 33.5954 110.768 33.6796 110.955 33.756C111.285 33.8894 111.623 34.0009 111.968 34.0898C111.998 34.0978 112.099 34.1201 111.979 34.093C112.021 34.1027 112.063 34.112 112.106 34.1211C112.188 34.1385 112.27 34.1545 112.353 34.1692C112.506 34.1957 112.66 34.2165 112.814 34.2318C112.958 34.2507 113.089 34.3251 113.179 34.4391C113.269 34.5531 113.31 34.6977 113.295 34.842C113.28 34.9864 113.209 35.1192 113.098 35.212C112.986 35.3049 112.842 35.3505 112.698 35.339L112.697 35.3394Z" fill="#0CBC8B"/>
<path d="M135.244 0.00035771L132.556 4.18188L134.321 5.31721L137.01 1.13569L135.244 0.00035771Z" fill="#0CBC8B"/>
<path d="M64.445 55.7363L62.6948 56.8955L65.7314 61.4802L67.4816 60.321L64.445 55.7363Z" fill="#0CBC8B"/>
<path d="M181.196 34.3207L179.592 35.675L183.517 40.3213L185.12 38.967L181.196 34.3207Z" fill="#0CBC8B"/>
<path d="M60.7153 71.4399L56.9229 75.3333L58.4266 76.798L62.2191 72.9047L60.7153 71.4399Z" fill="#0CBC8B"/>
<path d="M142.432 66.4728L140.666 67.6082L143.355 71.7897L145.12 70.6543L142.432 66.4728Z" fill="#0CBC8B"/>
<path d="M241.682 14.1842C243.102 13.6739 244.583 14.7056 245.25 15.9691C245.907 17.2145 245.754 18.9935 244.468 19.7902C243.921 20.1288 243.156 20.2421 242.679 19.8076C242.182 19.3557 242.212 18.7898 242.704 18.3366C242.819 18.2333 242.944 18.1423 243.078 18.0647C243.156 18.0179 243.235 17.9734 243.316 17.9327C243.346 17.9179 243.376 17.9037 243.407 17.8891C243.489 17.8504 243.287 17.9327 243.436 17.8769C243.557 17.8316 243.679 17.7936 243.804 17.7629C243.863 17.7487 243.923 17.7358 243.983 17.7248C244.018 17.7184 244.053 17.7126 244.087 17.7071C243.972 17.7251 244.143 17.7019 244.152 17.7013C244.434 17.6752 244.719 17.6799 245.001 17.7151C245.095 17.7271 244.926 17.7032 245.02 17.7187L245.131 17.7381C245.195 17.7503 245.26 17.7639 245.324 17.7787C245.482 17.8155 245.637 17.861 245.789 17.915C245.833 17.9301 245.963 17.9795 245.963 17.9795C245.916 17.9602 246.002 17.9976 246.001 17.997C246.036 18.0128 246.071 18.0292 246.105 18.0457C246.251 18.1167 246.393 18.1962 246.53 18.2839C246.764 18.4319 246.976 18.6127 247.16 18.8208C247.34 19.0233 247.489 19.2514 247.602 19.4977C247.625 19.5429 247.644 19.5897 247.66 19.6378C247.694 19.7317 247.724 19.8273 247.751 19.9235C247.812 20.1308 247.858 20.3422 247.888 20.5562C247.985 21.343 247.86 22.1412 247.526 22.8603C247.192 23.5793 246.663 24.1902 245.999 24.6236C245.734 24.7892 245.434 24.8892 245.122 24.9155C244.811 24.9418 244.498 24.8935 244.209 24.7747C244.129 24.7363 244.052 24.6918 243.979 24.6417C243.891 24.5829 244.02 24.6827 243.97 24.6359C243.956 24.6236 243.943 24.6117 243.93 24.5988C243.918 24.5859 243.898 24.5633 243.883 24.5455C244.028 24.7069 243.9 24.5755 243.909 24.5713C243.896 24.5513 243.885 24.5305 243.875 24.509C243.907 24.5574 243.899 24.6059 243.884 24.5252C243.881 24.5055 243.85 24.3441 243.86 24.4354C243.869 24.521 243.862 24.3812 243.86 24.3534C243.858 24.3257 243.863 24.2992 243.864 24.2721C243.864 24.2934 243.836 24.3928 243.862 24.294C243.879 24.2295 243.892 24.1633 243.913 24.0984C243.923 24.0661 243.98 23.937 243.936 24.0296C243.965 23.9673 243.997 23.9063 244.033 23.8469C244.069 23.7875 244.11 23.7223 244.153 23.6626C244.157 23.6565 244.215 23.5819 244.171 23.6368C244.196 23.6045 244.222 23.5751 244.249 23.5448C244.479 23.2862 244.748 23.0651 245.047 22.8892C245.139 22.834 245.232 22.7807 245.327 22.7323C245.36 22.7161 245.509 22.6522 245.387 22.7C245.505 22.6536 245.624 22.6143 245.746 22.5822C245.992 22.5084 246.249 22.4735 246.506 22.4785C246.651 22.4763 246.796 22.4817 246.941 22.4947C246.99 22.4958 247.038 22.5023 247.086 22.5141C247.174 22.5302 247.261 22.5483 247.348 22.5709C247.638 22.6369 247.91 22.762 248.149 22.9382C248.59 23.295 248.901 23.7879 249.032 24.3399C249.182 24.9145 249.195 25.5161 249.072 26.0969C248.957 26.671 248.705 27.2088 248.338 27.6648C248.152 27.8908 247.933 28.0876 247.688 28.2485C247.09 28.6384 247.647 29.6023 248.25 29.2095C248.923 28.7431 249.462 28.109 249.815 27.3699C250.167 26.6308 250.321 25.8124 250.259 24.9958C250.22 24.1707 249.943 23.3745 249.46 22.7039C248.94 22.0186 248.173 21.5621 247.323 21.4304C246.524 21.286 245.7 21.378 244.952 21.6951C244.205 22.0122 243.566 22.5406 243.114 23.2155C242.762 23.7727 242.588 24.5348 242.947 25.1327C243.403 25.8913 244.505 26.1053 245.316 26.0059C246.293 25.8449 247.17 25.3104 247.76 24.5152C248.455 23.6985 248.89 22.6934 249.011 21.6283C249.12 20.6372 248.932 19.6361 248.47 18.7527C248.081 18.0775 247.509 17.5263 246.819 17.1628C245.5 16.4526 243.794 16.3177 242.485 17.1218C241.629 17.6477 240.959 18.5745 241.28 19.6197C241.432 20.0896 241.732 20.4979 242.135 20.7836C242.538 21.0693 243.022 21.2173 243.516 21.2054C245.633 21.1695 246.97 18.9538 246.721 17.0088C246.463 14.9896 244.813 13.1809 242.756 12.9524C242.293 12.901 241.825 12.9554 241.386 13.1115C241.246 13.1542 241.128 13.2491 241.055 13.3765C240.983 13.5039 240.963 13.6542 240.998 13.7962C241.039 13.9376 241.134 14.0573 241.262 14.1298C241.39 14.2022 241.541 14.2215 241.683 14.1836L241.682 14.1842Z" fill="#0CBC8B"/>
<path d="M266.897 49.4957C268.518 49.3434 270.043 48.6547 271.229 47.5385C271.911 46.874 272.386 46.0266 272.597 45.0984C272.861 43.9511 272.756 42.5895 272.099 41.5911C271.792 41.1454 271.388 40.7749 270.918 40.5073C270.448 40.2397 269.923 40.0819 269.383 40.0458C268.352 40.0019 267.034 40.4593 266.591 41.4758C266.236 42.2883 266.675 43.2532 267.376 43.7261C268.488 44.476 269.939 44.303 271.04 43.627C271.638 43.2411 272.152 42.7384 272.552 42.1489C272.951 41.5595 273.227 40.8956 273.364 40.1968C273.604 38.9608 273.461 37.4268 272.525 36.5013C272.408 36.4108 272.261 36.3697 272.115 36.3869C271.968 36.4041 271.835 36.4783 271.743 36.5933C271.655 36.7105 271.615 36.8571 271.632 37.0027C271.649 37.1483 271.722 37.2817 271.835 37.3752C271.751 37.2925 271.874 37.4252 271.88 37.432C271.903 37.4617 271.926 37.4927 271.947 37.524C271.989 37.5805 272.025 37.6413 272.053 37.7054C272.144 37.9009 272.213 38.1057 272.26 38.3161C272.35 38.7635 272.37 39.2224 272.318 39.6758C272.198 40.6653 271.73 41.5797 270.997 42.2548C270.305 42.8846 269.36 43.3107 268.432 43.0169C268.245 42.9647 268.071 42.8721 267.924 42.7458C267.895 42.7222 267.867 42.6973 267.841 42.6718C267.927 42.7538 267.813 42.6396 267.804 42.6273C267.783 42.6024 267.764 42.5766 267.745 42.5505C267.727 42.5243 267.629 42.3519 267.701 42.4936C267.653 42.3968 267.632 42.2758 267.579 42.1857C267.583 42.1909 267.596 42.3148 267.585 42.2022C267.575 42.1446 267.573 42.086 267.578 42.0278C267.605 41.8438 267.568 42.0459 267.6 41.9471C267.605 41.9339 267.661 41.8164 267.628 41.8758C267.655 41.8329 267.686 41.7916 267.718 41.7522C267.731 41.735 267.818 41.6418 267.752 41.7063C267.889 41.5815 268.042 41.4773 268.209 41.3967C268.543 41.2169 268.919 41.131 269.298 41.1482C269.22 41.1453 269.342 41.1533 269.359 41.1553C269.407 41.1611 269.456 41.1653 269.504 41.1721C269.601 41.1859 269.697 41.2053 269.792 41.2302C269.727 41.2127 269.82 41.2389 269.826 41.2408C269.883 41.2589 269.94 41.2799 269.996 41.3018C270.1 41.344 270.202 41.3914 270.301 41.4439C270.66 41.6387 270.968 41.9151 271.201 42.2509C271.702 43.0143 271.69 44.0848 271.496 44.9302C271.473 45.0326 271.459 45.0832 271.442 45.1352C271.413 45.2269 271.381 45.3173 271.345 45.4067C271.276 45.5803 271.196 45.7493 271.105 45.9125C271.019 46.0694 271.162 45.8267 271.067 45.9771C271.048 46.0094 271.028 46.0384 271.008 46.0688C270.958 46.144 270.906 46.2179 270.851 46.2899C270.733 46.4465 270.605 46.5955 270.467 46.736C270.442 46.7615 270.418 46.7867 270.392 46.8116C270.475 46.7302 270.342 46.8558 270.326 46.871C270.254 46.9355 270.18 46.998 270.104 47.0585C269.94 47.1895 269.77 47.3114 269.593 47.4239C269.513 47.4753 269.432 47.523 269.349 47.5718C269.326 47.586 269.225 47.6418 269.323 47.5883C269.278 47.6128 269.233 47.6367 269.187 47.6599C269.008 47.7518 268.825 47.836 268.639 47.9124C268.309 48.0458 267.97 48.1573 267.626 48.2461C267.596 48.2542 267.494 48.2765 267.615 48.2494C267.573 48.2587 267.53 48.2684 267.488 48.2775C267.406 48.2949 267.323 48.3109 267.24 48.3256C267.088 48.352 266.934 48.3729 266.78 48.3882C266.636 48.4071 266.505 48.4814 266.415 48.5954C266.325 48.7094 266.283 48.854 266.298 48.9984C266.314 49.1428 266.385 49.2756 266.496 49.3684C266.608 49.4613 266.751 49.5068 266.896 49.4954L266.897 49.4957Z" fill="#0CBC8B"/>
<path d="M257.526 3.51189L255.76 4.64722L258.448 8.82874L260.214 7.69341L257.526 3.51189Z" fill="#0CBC8B"/>
<path d="M303.82 49.2913L300.784 53.876L302.534 55.0352L305.57 50.4505L303.82 49.2913Z" fill="#0CBC8B"/>
<path d="M194.108 16.9484L191.447 21.022L193.204 22.1699L195.866 18.0962L194.108 16.9484Z" fill="#0CBC8B"/>
<path d="M211.573 37.8323L207.649 42.4785L209.252 43.8329L213.177 39.1866L211.573 37.8323Z" fill="#0CBC8B"/>
<path d="M295.775 35.3396C294.153 35.1874 292.629 34.4988 291.442 33.3827C290.761 32.718 290.286 31.8706 290.074 30.9423C289.811 29.7953 289.916 28.4334 290.573 27.4349C290.879 26.9892 291.283 26.6187 291.753 26.3511C292.224 26.0835 292.749 25.9258 293.288 25.8896C294.321 25.8457 295.638 26.3032 296.08 27.3197C296.436 28.1322 295.996 29.0971 295.295 29.57C294.183 30.3202 292.733 30.1472 291.632 29.4712C291.034 29.0852 290.52 28.5825 290.12 27.993C289.721 27.4035 289.444 26.7395 289.308 26.0407C289.067 24.8047 289.211 23.2707 290.147 22.3452C290.263 22.2547 290.411 22.2137 290.557 22.2309C290.703 22.2481 290.837 22.3222 290.929 22.4372C291.017 22.5543 291.057 22.7009 291.04 22.8465C291.022 22.9921 290.95 23.1255 290.837 23.219C290.92 23.1364 290.798 23.2691 290.792 23.2758C290.769 23.3055 290.746 23.3365 290.724 23.3678C290.683 23.4243 290.647 23.4852 290.618 23.5493C290.528 23.7448 290.459 23.9496 290.412 24.16C290.321 24.6073 290.302 25.0662 290.354 25.5197C290.473 26.5091 290.942 27.4236 291.675 28.0986C292.367 28.7288 293.312 29.1549 294.24 28.8608C294.427 28.8085 294.601 28.716 294.748 28.5896C294.777 28.5661 294.804 28.5412 294.831 28.5157C294.745 28.5977 294.859 28.4834 294.868 28.4712C294.888 28.4463 294.908 28.4205 294.926 28.3943C294.945 28.3682 295.042 28.1958 294.971 28.3375C295.019 28.2407 295.04 28.1199 295.092 28.0299C295.089 28.035 295.076 28.159 295.087 28.046C295.097 27.9884 295.099 27.9298 295.094 27.8717C295.066 27.6877 295.103 27.8898 295.071 27.7913C295.067 27.7778 295.011 27.6622 295.044 27.7197C295.016 27.6767 294.986 27.6354 294.953 27.596C294.941 27.5789 294.853 27.4859 294.919 27.5502C294.783 27.4254 294.629 27.3211 294.463 27.2406C294.129 27.0608 293.753 26.9749 293.374 26.992C293.452 26.9891 293.33 26.9972 293.313 26.9991C293.265 27.005 293.216 27.0091 293.168 27.0159C293.071 27.0298 292.975 27.0492 292.88 27.074C292.945 27.0566 292.851 27.0827 292.846 27.0847C292.788 27.1031 292.732 27.1237 292.676 27.146C292.572 27.1879 292.47 27.2352 292.371 27.2877C292.012 27.4828 291.704 27.7591 291.471 28.0948C290.97 28.8582 290.981 29.9287 291.176 30.7741C291.199 30.8764 291.213 30.9271 291.23 30.9791C291.259 31.0708 291.291 31.1613 291.327 31.2506C291.396 31.4241 291.476 31.5931 291.567 31.7564C291.653 31.9133 291.51 31.6705 291.605 31.821C291.624 31.8533 291.644 31.8826 291.664 31.9127C291.714 31.9882 291.766 32.0619 291.82 32.1338C291.939 32.2904 292.067 32.4394 292.204 32.5799C292.229 32.6054 292.254 32.6306 292.28 32.6554C292.196 32.5741 292.329 32.6997 292.346 32.7148C292.418 32.7794 292.492 32.8419 292.568 32.9024C292.731 33.0333 292.902 33.1552 293.079 33.2678C293.159 33.3191 293.24 33.3672 293.322 33.416C293.346 33.4299 293.446 33.4857 293.348 33.4321C293.393 33.457 293.439 33.4805 293.484 33.5038C293.664 33.5957 293.847 33.6798 294.033 33.7562C294.363 33.8896 294.702 34.0011 295.046 34.09C295.076 34.0981 295.178 34.1204 295.057 34.0932C295.099 34.1029 295.141 34.1123 295.184 34.1213C295.266 34.1388 295.349 34.1536 295.431 34.1694C295.584 34.1959 295.738 34.2168 295.892 34.232C296.036 34.2509 296.167 34.3253 296.257 34.4393C296.347 34.5533 296.388 34.6979 296.373 34.8423C296.358 34.9867 296.287 35.1194 296.176 35.2123C296.064 35.3051 295.92 35.3507 295.776 35.3393L295.775 35.3396Z" fill="#0CBC8B"/>
<path d="M247.523 55.7363L245.772 56.8955L248.809 61.4802L250.559 60.321L247.523 55.7363Z" fill="#0CBC8B"/>
<path d="M243.791 71.4387L239.999 75.332L241.502 76.7968L245.295 72.9035L243.791 71.4387Z" fill="#0CBC8B"/>
<path d="M239.205 35.1709C239.205 35.1709 236.218 43.769 234.563 48.2241C234.484 48.4352 234.457 48.6617 234.481 48.8855C234.506 49.1093 234.583 49.3242 234.706 49.5129C234.829 49.7016 234.994 49.8589 235.189 49.9722C235.384 50.0856 235.602 50.1517 235.827 50.1655L244.397 50.6991C244.767 50.7221 245.132 50.6017 245.416 50.3629C245.7 50.1241 245.881 49.7852 245.921 49.4166L247.257 37.2714L239.205 35.1709Z" fill="#0F1011"/>
<path d="M251.127 55.453C251.127 55.453 248.717 53.9791 249.69 47.2288L244.6 45.9585C244.6 45.9585 244.805 52.0767 242.083 53.848L251.127 55.453Z" fill="#E98862"/>
<g opacity="0.15">
<path d="M243.215 52.6415L247.692 49.6322L244.335 49.3901C244.168 50.5343 243.788 51.637 243.215 52.6415Z" fill="black"/>
</g>
<path d="M252.771 44.7773C252.286 46.8136 251.045 48.6943 249.187 49.2473C247.16 49.9117 245.001 50.0698 242.899 49.7076C237.292 48.9006 239.193 36.1547 242.021 33.8302C244.849 31.5056 252.604 33.5632 253.304 37.7846C253.667 39.9681 253.23 42.8405 252.771 44.7773Z" fill="#E98862"/>
<path d="M244.836 42.6982C245.095 42.6982 245.304 42.4888 245.304 42.2305C245.304 41.9721 245.095 41.7627 244.836 41.7627C244.578 41.7627 244.369 41.9721 244.369 42.2305C244.369 42.4888 244.578 42.6982 244.836 42.6982Z" fill="#0F1011"/>
<path d="M241.171 42.1701C241.429 42.1701 241.639 41.9607 241.639 41.7024C241.639 41.444 241.429 41.2346 241.171 41.2346C240.913 41.2346 240.703 41.444 240.703 41.7024C240.703 41.9607 240.913 42.1701 241.171 42.1701Z" fill="#0F1011"/>
<path d="M241.667 40.7183C241.725 40.7208 241.782 40.7001 241.825 40.6606C241.868 40.6212 241.893 40.5663 241.896 40.508C241.898 40.4498 241.878 40.3929 241.838 40.35C241.799 40.307 241.744 40.2815 241.686 40.279L240.448 40.2189H240.445C240.387 40.2165 240.33 40.2372 240.287 40.2767C240.244 40.3161 240.219 40.371 240.216 40.4293C240.214 40.4875 240.234 40.5444 240.274 40.5873C240.313 40.6303 240.368 40.6558 240.426 40.6583L241.664 40.7183H241.667Z" fill="#0F1011"/>
<path d="M245.9 41.4466C245.954 41.4487 246.006 41.4313 246.048 41.3976C246.089 41.3639 246.117 41.3163 246.126 41.2636C246.135 41.2109 246.124 41.1567 246.096 41.1113C246.068 41.0658 246.024 41.0322 245.973 41.0166L244.771 40.6486C244.743 40.6384 244.714 40.6339 244.684 40.6356C244.654 40.6372 244.625 40.6449 244.598 40.6582C244.571 40.6715 244.548 40.69 244.528 40.7128C244.509 40.7355 244.495 40.7619 244.486 40.7904C244.477 40.819 244.474 40.849 244.477 40.8786C244.481 40.9083 244.49 40.937 244.504 40.963C244.519 40.989 244.539 41.0117 244.563 41.0298C244.586 41.0479 244.613 41.061 244.642 41.0683L245.844 41.4366C245.862 41.4423 245.881 41.4457 245.9 41.4466Z" fill="#0F1011"/>
<path d="M244.394 45.894C244.394 45.894 242.66 45.9699 241.477 45.4744C241.477 45.4744 241.417 46.6097 242.774 46.8053C244.131 47.0009 244.394 45.894 244.394 45.894Z" fill="white"/>
<g opacity="0.15">
<path d="M242.604 44.6929C242.643 44.6953 242.681 44.6838 242.712 44.6604C242.743 44.637 242.764 44.6034 242.772 44.5656C242.78 44.5278 242.775 44.4884 242.756 44.4544C242.737 44.4205 242.707 44.3944 242.671 44.3808L241.74 44.0308L242.495 42.5924C242.505 42.5735 242.512 42.5527 242.515 42.5312C242.517 42.5096 242.516 42.4877 242.51 42.4669C242.504 42.446 242.493 42.4266 242.48 42.4098C242.466 42.393 242.449 42.3791 242.43 42.369C242.41 42.359 242.389 42.3529 242.368 42.3511C242.346 42.3494 242.324 42.352 242.304 42.3589C242.283 42.3657 242.264 42.3767 242.248 42.3911C242.231 42.4055 242.218 42.423 242.209 42.4426L241.402 43.9814C241.387 44.0094 241.379 44.0401 241.377 44.0716C241.375 44.1031 241.38 44.1346 241.391 44.1641C241.402 44.1936 241.42 44.2204 241.442 44.2426C241.464 44.2649 241.491 44.2822 241.521 44.2933L242.558 44.6832C242.573 44.6886 242.589 44.6918 242.604 44.6929Z" fill="black"/>
</g>
<path d="M238.845 36.2016C238.845 36.2016 240.086 29.5795 250.677 31.884C253.317 32.4586 256.966 34.7751 257.153 41.6345C257.238 44.781 258.133 47.7983 258.839 49.7171C258.923 49.9424 258.949 50.185 258.916 50.4229C258.882 50.6609 258.789 50.8866 258.646 51.0796C258.503 51.2726 258.314 51.4269 258.096 51.5283C257.878 51.6297 257.638 51.6751 257.398 51.6604L249.881 51.1949C249.692 51.1835 249.507 51.135 249.337 51.0522C249.167 50.9694 249.015 50.8538 248.89 50.7122C248.764 50.5705 248.668 50.4056 248.606 50.2267C248.544 50.0478 248.518 49.8585 248.53 49.6696C248.53 49.6486 248.533 49.6273 248.535 49.6051C248.669 48.329 248.846 46.1655 248.98 42.8502C248.706 40.9363 249.83 39.6689 248.292 40.0095C242.58 41.2701 239.26 36.3356 238.845 36.2016Z" fill="#0F1011"/>
<path d="M247.07 44.3866C247.03 44.6456 247.042 44.9099 247.105 45.1643C247.168 45.4187 247.28 45.6581 247.436 45.8686C247.592 46.0792 247.789 46.2567 248.014 46.391C248.239 46.5253 248.488 46.6137 248.747 46.6511C249.007 46.6884 249.271 46.674 249.525 46.6086C249.778 46.5433 250.017 46.4283 250.226 46.2703C250.435 46.1123 250.61 45.9144 250.742 45.6881C250.875 45.4618 250.961 45.2116 250.995 44.9519C251.078 44.4414 250.954 43.919 250.651 43.4997C250.349 43.0805 249.892 42.7986 249.381 42.7161C249.36 42.7125 249.338 42.7093 249.317 42.7067C247.908 42.574 247.226 43.3033 247.07 44.3866Z" fill="#E98862"/>
<path d="M284.208 130.267L282.865 123.622C282.845 123.626 282.819 123.631 282.788 123.639C283.275 123.516 286.207 122.574 288.643 121.772L290.763 128.211C285.013 130.104 284.407 130.226 284.208 130.267Z" fill="#E98862"/>
<path d="M295.284 135.829C295.327 136.006 295.333 136.19 295.301 136.37C295.27 136.549 295.201 136.72 295.101 136.872C295 137.024 294.869 137.154 294.716 137.253C294.563 137.352 294.391 137.419 294.211 137.448C293.962 137.49 293.706 137.459 293.474 137.359C293.241 137.26 293.042 137.096 292.9 136.888L288.445 129.859C288.359 129.723 288.304 129.57 288.283 129.41C288.262 129.25 288.275 129.088 288.323 128.934C288.794 127.701 288.858 126.349 288.503 125.077C288.186 124.097 287.6 123.225 286.812 122.562C286.736 122.505 286.678 122.428 286.644 122.339C286.61 122.251 286.602 122.154 286.621 122.061C286.641 121.969 286.686 121.883 286.751 121.815C286.817 121.747 286.901 121.699 286.993 121.676L290.738 120.753C290.848 120.726 290.963 120.721 291.075 120.738C291.188 120.755 291.296 120.795 291.393 120.854C291.491 120.913 291.575 120.99 291.642 121.082C291.71 121.174 291.758 121.278 291.785 121.389L295.284 135.829Z" fill="#C1D8ED"/>
<path d="M234.251 176.735C231.851 171.179 231.674 170.586 231.616 170.391L238.113 168.457C238.108 168.437 238.1 168.411 238.09 168.381C238.256 168.855 239.457 171.691 240.474 174.046L234.251 176.735Z" fill="#E98862"/>
<path d="M227.07 181.921C226.897 181.98 226.714 182.003 226.532 181.987C226.35 181.972 226.173 181.92 226.013 181.833C225.852 181.746 225.711 181.627 225.599 181.484C225.486 181.34 225.404 181.175 225.359 180.998C225.295 180.754 225.303 180.496 225.381 180.256C225.46 180.016 225.605 179.803 225.8 179.642L232.402 174.577C232.53 174.479 232.677 174.41 232.834 174.375C232.991 174.34 233.154 174.339 233.312 174.372C234.582 174.731 235.935 174.673 237.17 174.206C238.118 173.802 238.933 173.14 239.523 172.295C239.573 172.215 239.645 172.15 239.73 172.108C239.815 172.067 239.91 172.051 240.004 172.061C240.098 172.072 240.188 172.109 240.261 172.168C240.335 172.228 240.391 172.307 240.421 172.397L241.677 176.044C241.714 176.152 241.729 176.266 241.722 176.379C241.715 176.493 241.686 176.604 241.635 176.706C241.585 176.808 241.516 176.9 241.43 176.975C241.345 177.05 241.245 177.108 241.137 177.144L227.07 181.921Z" fill="#C1D8ED"/>
<path d="M219.911 133.474C220.243 126.125 227.048 92.6862 227.769 89.0801L252.186 90.1854C252.186 90.1854 260.28 121.666 260.609 122.543L284.073 120.88L286.479 132.58L257.461 137.472C255.915 137.851 254.286 137.675 252.857 136.975C251.428 136.275 250.29 135.095 249.643 133.642C249.643 133.642 240.416 106.52 240.23 106.02L232.637 131.184L241.209 169.86L229.804 173.408C229.804 173.408 219.776 136.446 219.911 133.474Z" fill="#262626"/>
<path d="M199.702 62.0991L198.521 65.7353C198.521 65.7353 193.619 66.3854 190.85 62.3586C189.933 61.0241 191.425 59.9627 191.936 60.1936C193.624 60.956 195.186 61.878 196.776 61.7941C196.259 61.2847 195.596 60.5464 195.818 60.3117C196.401 59.6951 199.702 62.0991 199.702 62.0991Z" fill="#E98862"/>
<path d="M199.429 56.7197L193.762 63.0333L188.094 56.7197" fill="#C1D8ED"/>
<path d="M196.279 59.4504L193.791 62.2588L191.218 59.4136" fill="#F3F5FD"/>
<path d="M193.993 62.2585H193.531V70.1632H193.993V62.2585Z" fill="#C1D8ED"/>
<path d="M195.514 70.0752H192.007V70.5074H195.514V70.0752Z" fill="#C1D8ED"/>
<path d="M239.849 58.8898L221.924 69.2843C221.27 69.6638 220.511 69.8223 219.759 69.7363L197.234 67.1609L198.033 60.1682L219.402 62.6109L235.455 53.0256L239.849 58.8898Z" fill="#367CFF"/>
<path d="M285.674 49.4613L288.803 51.6581C288.803 51.6581 293.085 48.5103 292.878 43.6278C292.809 42.0096 290.978 42.0583 290.709 42.5496C289.817 44.1737 289.15 46.5709 287.83 47.4589C287.935 46.7417 288.023 45.7529 287.704 45.6987C286.868 45.556 285.674 49.4613 285.674 49.4613Z" fill="#E98862"/>
<path d="M254.626 91.7397C253.338 97.0661 227.374 91.2397 226.574 87.9467C225.747 84.5507 228.875 83.0916 230.547 72.7455C231.981 63.9069 229.433 51.0881 240.06 52.4697C240.26 52.4955 240.583 52.544 241 52.6118C240.781 54.3775 251.611 56.2531 252.153 54.5099C255.213 55.0425 257.56 56.4209 258.761 58.1221C262.899 64.0038 255.265 71.4704 254.103 78.1493C252.94 84.8283 255.443 88.3502 254.626 91.7397Z" fill="#367CFF"/>
<path d="M252.154 54.5102C251.611 56.2534 248.05 58.7519 244.187 57.8158C241.284 57.1121 240.781 54.3778 241 52.6121C243.251 52.9672 248.293 53.8355 252.144 54.507C252.146 54.5067 252.147 54.5069 252.149 54.5075C252.151 54.508 252.152 54.5089 252.154 54.5102Z" fill="#E98862"/>
<path d="M254.816 63.535L256.227 56.1836L272.691 61.8838L286.038 47.2327L291.24 51.9725L276.508 68.4007C275.856 69.1275 275 69.6404 274.052 69.8723C273.104 70.1042 272.107 70.0443 271.194 69.7003L254.816 63.535Z" fill="#367CFF"/>
<path d="M135.55 54.4767C135.55 54.4767 137.868 52.8627 136.494 46.1805L141.498 44.6084C141.498 44.6084 141.659 50.7279 144.482 52.3336L135.55 54.4767Z" fill="#E98862"/>
<g opacity="0.15">
<path d="M143.28 51.1981L138.631 48.462L141.968 48.021C142.203 49.1525 142.648 50.2301 143.28 51.1981Z" fill="black"/>
</g>
<path d="M133.271 43.9187C133.875 45.9228 135.228 47.7253 137.113 48.1669C139.352 48.6912 140.946 48.5511 143.418 48.2505C146.791 47.8403 146.251 44.3361 145.915 40.7801C145.577 37.2098 144.829 33.4267 143.346 32.3489C140.384 30.197 132.765 32.7146 132.319 36.9706C132.089 39.1715 132.697 42.0113 133.271 43.9187Z" fill="#E98862"/>
<path d="M147.026 30.4052C146.82 28.7124 144.376 26.1954 139.221 30.7035L139.216 30.7077C137.751 30.8441 136.312 31.1809 134.939 31.7084C132.462 32.7898 129.501 35.3365 130.964 40.4598C132.596 46.1778 135.174 47.4435 136.464 48.0136C136.793 48.1585 136.85 48.001 136.914 47.6475C137.095 46.3482 137.178 45.0371 137.162 43.7254C137.219 42.4398 137.159 41.1518 136.983 39.8771C136.914 39.3112 136.666 37.2482 139.471 36.8837C141.049 36.6787 140.467 36.8133 142.151 36.6083C142.391 36.5793 142.603 36.5438 142.796 36.5015H142.798C148.618 35.7939 147.233 32.098 147.026 30.4052Z" fill="#0F1011"/>
<path d="M141.04 41.3693C141.299 41.3693 141.508 41.1599 141.508 40.9016C141.508 40.6433 141.299 40.4338 141.04 40.4338C140.782 40.4338 140.573 40.6433 140.573 40.9016C140.573 41.1599 140.782 41.3693 141.04 41.3693Z" fill="#0F1011"/>
<path d="M144.666 40.6233C144.925 40.6233 145.134 40.4138 145.134 40.1555C145.134 39.8972 144.925 39.6877 144.666 39.6877C144.408 39.6877 144.199 39.8972 144.199 40.1555C144.199 40.4138 144.408 40.6233 144.666 40.6233Z" fill="#0F1011"/>
<path d="M144.092 39.2046C144.035 39.2053 143.981 39.1841 143.939 39.1453C143.898 39.1066 143.873 39.0533 143.87 38.9967C143.867 38.9401 143.886 38.8845 143.923 38.8416C143.96 38.7987 144.012 38.7718 144.069 38.7665L145.301 38.6322C145.358 38.6264 145.416 38.6437 145.461 38.6802C145.506 38.7167 145.535 38.7696 145.541 38.8272C145.547 38.8849 145.531 38.9427 145.494 38.988C145.458 39.0334 145.406 39.0626 145.348 39.0693L144.116 39.2033C144.108 39.2042 144.1 39.2046 144.092 39.2046Z" fill="#0F1011"/>
<path d="M139.909 40.1838C139.858 40.184 139.808 40.166 139.768 40.133C139.728 40.1 139.702 40.054 139.692 40.0033C139.683 39.9525 139.692 39.9001 139.718 39.8553C139.744 39.8105 139.784 39.7762 139.833 39.7583L141.009 39.319C141.064 39.3007 141.123 39.3041 141.174 39.3286C141.226 39.3531 141.266 39.3967 141.286 39.4502C141.306 39.5036 141.304 39.5628 141.281 39.6151C141.259 39.6674 141.216 39.7088 141.163 39.7305L139.986 40.1699C139.962 40.179 139.936 40.1837 139.909 40.1838Z" fill="#0F1011"/>
<path d="M138.762 42.3319C138.866 42.846 138.761 43.3801 138.472 43.8174C138.182 44.2546 137.731 44.5594 137.218 44.6651C136.704 44.7707 136.169 44.6686 135.731 44.3811C135.292 44.0935 134.985 43.644 134.877 43.1308C134.82 42.8755 134.815 42.6113 134.863 42.3539C134.91 42.0965 135.008 41.8513 135.152 41.6328C135.296 41.4143 135.483 41.227 135.7 41.0821C135.918 40.9372 136.163 40.8375 136.42 40.7892C137.818 40.5726 138.541 41.2592 138.762 42.3319Z" fill="#E98862"/>
<g opacity="0.15">
<path d="M143.415 43.2264C143.376 43.2311 143.338 43.2218 143.306 43.2003C143.273 43.1788 143.25 43.1465 143.24 43.1093C143.229 43.072 143.233 43.0323 143.249 42.9973C143.266 42.9624 143.294 42.9345 143.33 42.9187L144.239 42.5139L143.399 41.1233C143.388 41.1051 143.381 41.085 143.378 41.064C143.375 41.0431 143.376 41.0217 143.381 41.0011C143.386 40.9806 143.395 40.9612 143.407 40.9441C143.42 40.927 143.436 40.9126 143.454 40.9017C143.472 40.8907 143.492 40.8834 143.513 40.8802C143.534 40.8771 143.556 40.878 143.576 40.8831C143.597 40.8882 143.616 40.8973 143.633 40.9099C143.65 40.9224 143.665 40.9382 143.676 40.9564L144.61 42.5036C144.622 42.5232 144.629 42.5451 144.632 42.5678C144.635 42.5905 144.632 42.6136 144.626 42.6354C144.619 42.6572 144.607 42.6773 144.592 42.6944C144.577 42.7115 144.558 42.7251 144.537 42.7344L143.461 43.2138C143.447 43.2204 143.431 43.2247 143.415 43.2264Z" fill="black"/>
</g>
<path d="M141.7 44.5326C141.7 44.5326 143.436 44.5049 144.586 43.939C144.586 43.939 144.716 45.0688 143.371 45.3451C142.027 45.6215 141.7 44.5326 141.7 44.5326Z" fill="white"/>
<path d="M102.331 128.954C102.132 128.914 101.524 128.793 95.7754 126.899L97.8953 120.459C100.332 121.262 103.264 122.203 103.751 122.326C103.719 122.319 103.694 122.313 103.674 122.31L102.331 128.954Z" fill="#E98862"/>
<path d="M91.2554 134.515C91.2125 134.693 91.2067 134.877 91.2383 135.056C91.2698 135.236 91.3381 135.407 91.4387 135.559C91.5394 135.711 91.6703 135.841 91.8234 135.94C91.9764 136.039 92.1482 136.105 92.3281 136.135C92.5774 136.176 92.8333 136.145 93.0656 136.046C93.298 135.947 93.4971 135.783 93.6396 135.575L98.0944 128.546C98.1803 128.41 98.2356 128.257 98.2567 128.097C98.2778 127.937 98.264 127.775 98.2165 127.621C97.7451 126.388 97.682 125.036 98.0363 123.764C98.3534 122.783 98.9395 121.912 99.7279 121.248C99.8037 121.192 99.8619 121.114 99.8956 121.026C99.9292 120.937 99.937 120.841 99.918 120.748C99.899 120.655 99.8539 120.57 99.7881 120.502C99.7223 120.434 99.6385 120.386 99.5464 120.363L95.7999 119.44C95.6894 119.413 95.5746 119.408 95.462 119.425C95.3495 119.442 95.2415 119.482 95.1442 119.541C95.0469 119.6 94.9622 119.677 94.895 119.769C94.8279 119.861 94.7795 119.965 94.7527 120.076L91.2554 134.515Z" fill="#C1D8ED"/>
<path d="M162.256 178.803L155.555 177.781C155.942 175.244 156.383 172.196 156.424 171.696C156.421 171.728 156.42 171.754 156.42 171.775L163.195 171.999C163.189 172.202 163.168 172.819 162.256 178.803Z" fill="#E98862"/>
<path d="M170.519 181.996C170.701 182.009 170.883 181.984 171.055 181.924C171.227 181.863 171.385 181.767 171.518 181.643C171.652 181.518 171.758 181.368 171.83 181.2C171.903 181.033 171.94 180.852 171.939 180.67C171.939 180.417 171.866 180.17 171.729 179.957C171.593 179.744 171.398 179.575 171.169 179.469L163.498 176.243C163.35 176.181 163.189 176.152 163.029 176.157C162.868 176.163 162.71 176.203 162.566 176.276C161.427 176.946 160.104 177.232 158.79 177.094C157.77 176.944 156.814 176.511 156.028 175.843C155.96 175.778 155.874 175.734 155.781 175.715C155.688 175.697 155.592 175.705 155.504 175.739C155.416 175.773 155.339 175.832 155.282 175.908C155.226 175.984 155.193 176.075 155.186 176.169L154.897 180.017C154.888 180.13 154.902 180.244 154.938 180.352C154.974 180.46 155.031 180.56 155.105 180.646C155.179 180.732 155.27 180.803 155.372 180.854C155.474 180.905 155.584 180.935 155.698 180.943L170.519 181.996Z" fill="#C1D8ED"/>
<path d="M166.629 132.162C166.296 124.812 159.491 91.3737 158.771 87.7676L134.354 88.8729C134.354 88.8729 126.259 120.353 125.93 121.23L102.467 119.568L100.062 131.267L129.078 136.162C130.624 136.541 132.253 136.364 133.682 135.664C135.111 134.964 136.249 133.785 136.897 132.331C136.897 132.331 146.123 105.209 146.309 104.709L153.902 129.873L153.782 173.92L165.715 174.457C165.715 174.457 166.764 135.134 166.629 132.162Z" fill="#262626"/>
<path d="M176.339 58.6769L179.14 61.2791C179.14 61.2791 183.739 59.4617 184.199 54.5969C184.351 52.9828 182.531 52.7833 182.197 53.2337C181.093 54.7209 180.177 56.2865 178.748 56.9867C178.951 56.2907 179.171 55.3229 178.863 55.2257C178.053 54.9701 176.339 58.6769 176.339 58.6769Z" fill="#E98862"/>
<path d="M147.188 57.7803L152.973 53.771L163.606 69.1113L176.445 56.5239L181.372 61.5501L165.555 77.0589C165.189 77.4178 164.749 77.6924 164.266 77.8635C163.783 78.0347 163.268 78.0983 162.758 78.0498C162.248 78.0014 161.755 77.8421 161.313 77.5832C160.87 77.3242 160.49 76.9717 160.198 76.5505L147.188 57.7803Z" fill="#367CFF"/>
<path d="M114.078 42.2343L110.259 42.0471C110.259 42.0471 108.812 36.9334 111.974 33.2069C113.021 31.9718 114.436 33.1343 114.347 33.6876C114.054 35.5163 113.109 37.8195 113.605 39.3303C113.96 38.6989 114.5 37.8654 114.785 38.0178C115.534 38.4187 114.078 42.2343 114.078 42.2343Z" fill="#E98862"/>
<path d="M159.965 86.6349C159.165 89.9276 133.201 95.7543 131.916 90.4247C131.096 87.0352 133.598 83.5165 132.436 76.8376C131.274 70.1586 123.639 62.6888 127.778 56.8104C128.979 55.1059 131.325 53.7275 134.386 53.1949C134.925 54.9381 145.758 53.0658 145.539 51.3C145.955 51.2322 146.278 51.1838 146.478 51.1579C157.105 49.7763 154.561 62.5951 155.991 71.4305C157.664 81.7798 160.792 83.2389 159.965 86.6349Z" fill="#367CFF"/>
<path d="M142.356 56.504C138.485 57.4402 134.925 54.9384 134.386 53.1952C134.387 53.194 134.389 53.1931 134.39 53.1925C134.392 53.1919 134.394 53.1918 134.395 53.192C138.25 52.5237 143.289 51.6554 145.539 51.3003C145.758 53.0661 145.252 55.8003 142.356 56.504Z" fill="#E98862"/>
<path d="M113.293 65.1391C112.407 65.1392 111.553 64.805 110.903 64.2032C110.252 63.6014 109.853 62.7764 109.784 61.8929L108.142 40.7985L115.159 40.252L116.501 57.4755L131.038 54.2474L132.269 61.1775L113.909 65.0836C113.706 65.12 113.5 65.1386 113.293 65.1391Z" fill="#367CFF"/>
<path d="M185.183 50.2583L179.516 56.5718L173.848 50.2583" fill="#C1D8ED"/>
<path d="M182.033 52.9885L179.544 55.7969L176.972 52.9517" fill="#F3F5FD"/>
<path d="M179.746 55.7971H179.284V63.7018H179.746V55.7971Z" fill="#C1D8ED"/>
<path d="M181.269 63.614H177.763V64.0463H181.269V63.614Z" fill="#C1D8ED"/>
<path d="M50.8561 178.063L44.1245 177.263C44.4276 174.715 44.7701 171.654 44.7934 171.152C44.7934 171.185 44.7934 171.211 44.7934 171.231H51.5724C51.5708 171.433 51.5708 172.051 50.8561 178.063Z" fill="#E98862"/>
<path d="M7.64152 175.884L1.48486 173.05C1.48486 173.05 4.41179 166.69 4.6694 166.127L10.8367 168.941C10.5775 169.506 7.64152 175.884 7.64152 175.884Z" fill="#E98862"/>
<path d="M14.0499 181.691C14.2161 181.766 14.396 181.806 14.5783 181.808C14.7606 181.81 14.9414 181.775 15.1094 181.704C15.2775 181.633 15.4291 181.529 15.5549 181.397C15.6807 181.265 15.7779 181.108 15.8405 180.937C15.9272 180.7 15.9442 180.442 15.8896 180.196C15.8351 179.949 15.7112 179.723 15.5326 179.544L9.45211 173.863C9.33401 173.753 9.19366 173.671 9.04066 173.62C8.88766 173.57 8.72563 173.554 8.56567 173.572C7.26632 173.806 5.92612 173.618 4.74197 173.034C3.83704 172.541 3.08884 171.803 2.58269 170.906C2.54102 170.821 2.47598 170.749 2.39515 170.699C2.31432 170.65 2.22105 170.624 2.12624 170.626C2.03143 170.627 1.93901 170.656 1.85978 170.708C1.78055 170.76 1.71778 170.833 1.67881 170.92L0.0783156 174.43C0.0311349 174.533 0.00485722 174.645 0.000988262 174.759C-0.0028807 174.873 0.0157351 174.986 0.055769 175.093C0.0958029 175.199 0.156468 175.297 0.234288 175.38C0.312108 175.463 0.405553 175.53 0.509269 175.577L14.0499 181.691Z" fill="#C1D8ED"/>
<path d="M59.1156 181.494C59.2978 181.493 59.4778 181.454 59.6444 181.38C59.8111 181.307 59.9607 181.199 60.0841 181.065C60.2074 180.931 60.3019 180.773 60.3614 180.601C60.421 180.429 60.4445 180.246 60.4304 180.064C60.4106 179.812 60.3194 179.571 60.1673 179.37C60.0153 179.168 59.8087 179.014 59.572 178.925L51.6822 176.283C51.5294 176.232 51.3674 176.215 51.2074 176.233C51.0473 176.25 50.893 176.303 50.7551 176.386C49.6703 177.138 48.3727 177.523 47.0531 177.483C46.0253 177.41 45.0388 177.05 44.2059 176.443C44.1327 176.383 44.0439 176.345 43.95 176.333C43.856 176.322 43.7607 176.337 43.6751 176.378C43.5896 176.419 43.5174 176.483 43.4669 176.563C43.4165 176.643 43.3898 176.736 43.3901 176.83V180.689C43.3901 180.803 43.4125 180.915 43.4562 181.02C43.4998 181.125 43.5638 181.221 43.6444 181.301C43.725 181.382 43.8207 181.445 43.926 181.488C44.0313 181.532 44.144 181.554 44.2579 181.553L59.1156 181.494Z" fill="#C1D8ED"/>
<path d="M60.9937 133.508C58.0125 120.716 49.0412 89.6383 49.0412 89.6383L24.4827 88.1211C24.4827 88.1211 22.1294 126.362 21.5493 135.469L1.40625 169.08L11.5425 174.75C11.906 173.392 36.3774 138.817 34.7652 138.069C35.631 128.568 37.0436 115.482 37.9269 104.603C41.9507 114.728 45.868 124.935 49.0638 135.304L41.5204 175.018L53.2514 175.974L61.0718 136.107C61.2473 135.246 61.2206 134.357 60.9937 133.508Z" fill="#262626"/>
<path d="M35.6157 54.0743C35.6157 54.0743 38.3086 53.2205 38.9804 46.4334L44.2245 46.4182C44.2245 46.4182 42.5607 52.3095 44.7803 54.6822L35.6157 54.0743Z" fill="#E98862"/>
<path opacity="0.14" d="M43.9705 53.2376L40.3438 49.2441L43.6606 49.8136C43.5497 50.9643 43.6548 52.1256 43.9705 53.2376Z" fill="black"/>
<path d="M36.5741 43.3151C36.5553 45.4079 37.312 47.531 38.9819 48.5124C40.7914 49.6425 42.8498 50.3128 44.9778 50.4647C50.6151 51.0225 51.8214 38.1927 49.6308 35.2587C47.4402 32.3247 39.419 32.4664 37.7291 36.3976C36.8559 38.431 36.5928 41.323 36.5741 43.3151Z" fill="#E98862"/>
<path d="M44.8887 43.2092C45.147 43.2092 45.3564 42.9998 45.3564 42.7414C45.3564 42.4831 45.147 42.2737 44.8887 42.2737C44.6303 42.2737 44.4209 42.4831 44.4209 42.7414C44.4209 42.9998 44.6303 43.2092 44.8887 43.2092Z" fill="#0F1011"/>
<path d="M48.5742 43.5742C48.8325 43.5742 49.042 43.3648 49.042 43.1064C49.042 42.8481 48.8325 42.6387 48.5742 42.6387C48.3159 42.6387 48.1064 42.8481 48.1064 43.1064C48.1064 43.3648 48.3159 43.5742 48.5742 43.5742Z" fill="#0F1011"/>
<path d="M49.5902 42.2743C49.576 42.2743 49.5618 42.2729 49.5479 42.2701L48.3319 42.0325C48.3027 42.0279 48.2747 42.0175 48.2496 42.0019C48.2245 41.9863 48.2028 41.9657 48.1859 41.9415C48.1689 41.9173 48.157 41.89 48.1508 41.8611C48.1447 41.8322 48.1444 41.8023 48.15 41.7733C48.1557 41.7443 48.1671 41.7167 48.1837 41.6922C48.2002 41.6677 48.2215 41.6468 48.2463 41.6308C48.2711 41.6147 48.2989 41.6038 48.3281 41.5987C48.3572 41.5937 48.387 41.5945 48.4158 41.6012L49.6321 41.8388C49.6856 41.8494 49.7333 41.8795 49.7658 41.9232C49.7983 41.967 49.8135 42.0213 49.8082 42.0755C49.803 42.1298 49.7778 42.1802 49.7375 42.2169C49.6972 42.2536 49.6447 42.2741 49.5902 42.2743Z" fill="#0F1011"/>
<path d="M44.0878 41.7302C44.0313 41.7291 43.9774 41.7064 43.9372 41.6666C43.897 41.6268 43.8737 41.5731 43.8722 41.5165C43.8706 41.46 43.8908 41.4051 43.9287 41.3631C43.9666 41.3211 44.0192 41.2954 44.0756 41.2912L45.3303 41.2211C45.3593 41.2188 45.3884 41.2225 45.4159 41.2317C45.4434 41.241 45.4688 41.2558 45.4904 41.2752C45.5121 41.2946 45.5295 41.3181 45.5418 41.3445C45.5541 41.3708 45.5609 41.3993 45.5618 41.4284C45.5651 41.4865 45.5451 41.5436 45.5063 41.5871C45.4675 41.6305 45.413 41.6568 45.3549 41.6601L44.1001 41.7299L44.0878 41.7302Z" fill="#0F1011"/>
<path d="M44.4409 46.4045C44.4409 46.4045 46.1069 46.8936 47.3733 46.6951C47.3733 46.6951 47.16 47.812 45.7958 47.6771C44.4316 47.5421 44.4409 46.4045 44.4409 46.4045Z" fill="#F8FCFF"/>
<path d="M41.2716 38.7403C40.0672 48.0847 38.6226 48.8084 38.6226 48.8084C38.6226 48.8084 34.5052 45.1833 34.9155 39.5144C35.2999 34.2003 39.7011 31.824 42.4015 31.7172C52.6627 31.3111 52.1132 40.4857 52.1132 40.4857C46.9483 40.854 40.1692 38.7306 40.1692 38.7306" fill="#0F1011"/>
<path d="M42.29 43.4309C42.2643 43.69 42.1879 43.9416 42.0651 44.1711C41.9422 44.4007 41.7753 44.6039 41.574 44.769C41.3726 44.934 41.1407 45.0579 40.8915 45.1333C40.6423 45.2088 40.3806 45.2344 40.1215 45.2088C39.8624 45.1831 39.6109 45.1067 39.3813 44.9839C39.1517 44.861 38.9486 44.6941 38.7835 44.4928C38.6184 44.2914 38.4946 44.0595 38.4191 43.8103C38.3436 43.5611 38.318 43.2994 38.3436 43.0403C38.365 42.7795 38.4386 42.5257 38.56 42.294C38.6815 42.0622 38.8484 41.8573 39.0507 41.6914C39.253 41.5255 39.4867 41.402 39.7377 41.3283C39.9887 41.2546 40.252 41.2321 40.5119 41.2623C41.9107 41.4705 42.3978 42.3411 42.29 43.4309Z" fill="#E98862"/>
<path d="M33.5232 39.3548C36.0203 39.3548 38.0445 37.3306 38.0445 34.8335C38.0445 32.3365 36.0203 30.3123 33.5232 30.3123C31.0262 30.3123 29.002 32.3365 29.002 34.8335C29.002 37.3306 31.0262 39.3548 33.5232 39.3548Z" fill="#0F1011"/>
<path opacity="0.14" d="M46.4954 45.6693C46.4742 45.6706 46.453 45.6676 46.4329 45.6607C46.4129 45.6537 46.3944 45.6429 46.3785 45.6288C46.3465 45.6003 46.327 45.5602 46.3245 45.5174C46.322 45.4746 46.3366 45.4326 46.365 45.4005C46.3935 45.3685 46.4336 45.349 46.4764 45.3465L47.4648 45.2296L47.0775 43.6524C47.0675 43.6109 47.0744 43.5672 47.0966 43.5308C47.1188 43.4944 47.1544 43.4682 47.1958 43.458C47.2372 43.4479 47.281 43.4545 47.3175 43.4764C47.3541 43.4984 47.3805 43.5339 47.3909 43.5752L47.8232 45.33C47.8286 45.3522 47.8293 45.3753 47.8252 45.3978C47.821 45.4203 47.8122 45.4416 47.7992 45.4604C47.7862 45.4792 47.7693 45.4951 47.7498 45.5069C47.7302 45.5187 47.7083 45.5262 47.6856 45.5289L46.5158 45.6671L46.4954 45.6693Z" fill="black"/>
<path d="M77.932 56.1385L78.087 56.0872L76.8896 57.566L80.611 58.9586C80.611 58.9586 86.7709 55.591 86.7525 50.7779C86.752 50.6553 86.7144 50.5357 86.6448 50.4347C86.5753 50.3338 86.4768 50.2561 86.3624 50.212C86.248 50.1679 86.123 50.1593 86.0036 50.1873C85.8843 50.2154 85.7761 50.2788 85.6934 50.3692C84.445 51.7383 82.1453 54.0961 80.6533 54.6487C80.9251 53.9763 81.2421 53.0347 80.9458 52.9078C80.1662 52.5718 78.5373 55.3909 77.932 56.1385Z" fill="#E98862"/>
<path d="M77.5856 54.5141L65.0224 68.0909L51.699 56.0678L51.6732 56.0965C50.6993 55.1126 49.2521 54.4218 47.1671 54.1242C46.9657 54.0945 46.6419 54.0557 46.2248 54.0083C45.9666 55.7666 35.0258 54.6775 34.9726 52.8526C31.8823 52.5498 29.2536 53.2468 27.6402 54.5696C22.0801 59.1284 27.4365 68.365 26.7686 75.1111C26.1007 81.8572 22.7496 84.5814 22.6318 88.0665C22.4468 93.5433 49.022 94.8755 50.6738 91.9153C52.3769 88.8657 49.7544 86.6213 50.9114 76.2061C51.251 73.1371 52.1726 69.7395 52.8001 66.5427L62.8867 75.646C63.574 76.2664 64.478 76.5909 65.4029 76.5492C66.3278 76.5075 67.199 76.103 67.8277 75.4233L82.7515 59.2956L77.5856 54.5141Z" fill="#367CFF"/>
<path d="M46.2244 54.0088C45.9662 55.7672 44.7485 58.27 41.7641 58.1731C37.7871 58.0421 35.0254 54.6774 34.9722 52.8525H34.9822C38.8724 53.2389 43.9599 53.748 46.2244 54.0088Z" fill="#E98862"/>
<path d="M34.3501 76.3292L34.4818 76.4261L32.583 76.3076L33.6054 80.1471C33.6054 80.1471 39.9195 83.2138 43.832 80.4093C43.9316 80.3377 44.0072 80.2378 44.0491 80.1226C44.091 80.0073 44.0972 79.8822 44.0668 79.7634C44.0365 79.6446 43.971 79.5377 43.8789 79.4568C43.7869 79.3758 43.6725 79.3244 43.5508 79.3094C41.7108 79.0857 38.4575 78.5786 37.1421 77.6831C37.8477 77.5149 38.7984 77.2276 38.7303 76.9122C38.5518 76.0823 35.3108 76.3893 34.3501 76.3292Z" fill="#E98862"/>
<path d="M33.9475 81.674L17.4367 80.7602C16.825 80.7265 16.2326 80.5337 15.7183 80.2009C15.2039 79.868 14.7854 79.4066 14.5041 78.8624C14.2228 78.3181 14.0885 77.7099 14.1145 77.0978C14.1404 76.4857 14.3258 75.8909 14.6521 75.3724L27.4064 55.0957L33.3645 58.8432L23.7909 74.0625L34.3359 74.6464L33.9475 81.674Z" fill="#367CFF"/>
<path d="M88.4193 48.5586L82.7514 54.8718L77.0835 48.5586" fill="#C1D8ED"/>
<path d="M85.2695 51.289L82.7816 54.0978L80.2085 51.2522" fill="#F3F5FD"/>
<path d="M82.9824 54.0977H82.5205V62.0023H82.9824V54.0977Z" fill="#C1D8ED"/>
<path d="M84.5049 61.9143H80.9985V62.3466H84.5049V61.9143Z" fill="#C1D8ED"/>
</g>
<defs>
<clipPath id="clip0_1_1472">
<rect width="321.735" height="182" fill="white"/>
</clipPath>
</defs>
</svg>
