<svg width="344" height="40" viewBox="0 0 344 40" fill="none" xmlns="http://www.w3.org/2000/svg">
<path d="M38.1015 17.0454H153.409V22.0588H38.1015V17.0454Z" fill="#3484F0" fill-opacity="0.5"/>
<path d="M190.508 17.0454H305.815V22.0588H190.508V17.0454Z" fill="#3484F0" fill-opacity="0.5"/>
<path d="M19.0927 1.00267C8.55353 1.00267 0 9.5562 0 20.0954C0 30.6345 8.55353 39.1881 19.0927 39.1881C29.6319 39.1881 38.1854 30.6345 38.1854 20.0954C38.1854 9.5562 29.6319 1.00267 19.0927 1.00267ZM15.2742 29.6417L5.72781 20.0954L8.41988 17.4033L15.2742 24.2385L29.7655 9.74713L32.4576 12.4583L15.2742 29.6417Z" fill="#015EE9"/>
<path d="M324.907 1.00267C314.368 1.00267 305.815 9.5562 305.815 20.0954C305.815 30.6345 314.368 39.1881 324.907 39.1881C335.447 39.1881 344 30.6345 344 20.0954C344 9.5562 335.447 1.00267 324.907 1.00267ZM321.089 29.6417L311.543 20.0954L314.235 17.4033L321.089 24.2385L335.58 9.74713L338.272 12.4583L321.089 29.6417Z" fill="#015EE9"/>
<path d="M172.501 0C161.962 0 153.409 8.55353 153.409 19.0927C153.409 29.6319 161.962 38.1854 172.501 38.1854C183.041 38.1854 191.594 29.6319 191.594 19.0927C191.594 8.55353 183.041 0 172.501 0ZM168.683 28.6391L159.137 19.0927L161.829 16.4006L168.683 23.2358L183.174 8.74446L185.866 11.4556L168.683 28.6391Z" fill="#015EE9"/>
</svg>
