<svg width="251" height="252" viewBox="0 0 251 252" fill="none" xmlns="http://www.w3.org/2000/svg">
<path opacity="0.1" d="M125.5 251C194.812 251 251 194.812 251 125.5C251 56.1882 194.812 0 125.5 0C56.1882 0 0 56.1882 0 125.5C0 194.812 56.1882 251 125.5 251Z" fill="#367CFF"/>
<path d="M71.203 87.8557C71.6568 87.347 72.2062 86.9326 72.8201 86.6362C73.434 86.3399 74.1002 86.1673 74.7808 86.1284C75.4613 86.0896 76.1429 86.1851 76.7865 86.4096C77.4301 86.6341 78.0232 86.9832 78.532 87.4369L95.0977 102.212L88.1872 109.96L71.6215 95.1849C71.1128 94.7312 70.6984 94.1816 70.402 93.5677C70.1057 92.9538 69.9331 92.2876 69.8943 91.607C69.8554 90.9264 69.951 90.2448 70.1755 89.6012C70.4001 88.9575 70.7492 88.3644 71.203 87.8557Z" fill="white"/>
<path d="M88.2276 110.683L71.2806 95.5668C70.7216 95.0683 70.2663 94.4645 69.9407 93.79C69.615 93.1155 69.4254 92.3835 69.3827 91.6357C69.34 90.8879 69.4449 90.1391 69.6916 89.4319C69.9383 88.7246 70.3218 88.073 70.8204 87.514C71.3189 86.955 71.9226 86.4997 72.5971 86.174C73.2716 85.8484 74.0037 85.6588 74.7515 85.6161C75.4992 85.5733 76.2481 85.6783 76.9553 85.925C77.6625 86.1716 78.3142 86.5552 78.8732 87.0537L95.8221 102.17L88.2276 110.683ZM75.0815 86.6317C74.9908 86.6317 74.8998 86.6343 74.8085 86.6394C73.8848 86.6924 72.9975 87.0181 72.2588 87.5754C71.5201 88.1327 70.9633 88.8965 70.6587 89.7702C70.3542 90.6439 70.3155 91.5883 70.5476 92.484C70.7798 93.3797 71.2723 94.1865 71.963 94.8023L88.1462 109.236L94.3741 102.254L78.1908 87.8198C77.3372 87.0535 76.2301 86.6303 75.083 86.6317H75.0815Z" fill="#292A2E"/>
<path d="M162.811 109.959L155.901 102.212L172.467 87.4365C173.494 86.5201 174.843 86.0495 176.218 86.128C177.592 86.2065 178.879 86.8278 179.796 87.8552C180.712 88.8826 181.183 90.232 181.104 91.6064C181.026 92.9809 180.404 94.2678 179.377 95.1842L162.811 109.959Z" fill="white"/>
<path d="M162.771 110.683L155.179 102.17L172.127 87.0537C173.256 86.0469 174.739 85.5298 176.249 85.6161C177.759 85.7024 179.173 86.3851 180.18 87.514C181.187 88.6429 181.704 90.1255 181.618 91.6357C181.531 93.1459 180.849 94.56 179.72 95.5668L162.771 110.683ZM156.626 102.253L162.854 109.236L179.037 94.8023C179.496 94.3933 179.869 93.8981 180.136 93.3449C180.404 92.7916 180.559 92.1912 180.594 91.5778C180.629 90.9645 180.543 90.3502 180.341 89.7702C180.138 89.1901 179.824 88.6556 179.415 88.1971C179.006 87.7386 178.511 87.3652 177.957 87.0981C177.404 86.831 176.804 86.6755 176.19 86.6405C175.577 86.6054 174.963 86.6916 174.383 86.8939C173.803 87.0963 173.268 87.4109 172.81 87.8198L156.626 102.253Z" fill="#292A2E"/>
<path d="M169.71 119.57C173.405 135.934 178.464 146.462 175.945 152.508C174.621 155.686 171.903 158.351 167.404 158.351C160.391 158.351 160.391 150.08 153.378 150.08C146.364 150.08 146.365 158.351 139.353 158.351C132.34 158.351 132.341 150.08 125.329 150.08C118.317 150.08 118.317 158.351 111.304 158.351C104.292 158.351 104.292 150.08 97.2805 150.08C90.2686 150.08 90.2694 158.351 83.2582 158.351C79.0953 158.351 76.7421 155.899 75.2497 153.066C71.6633 146.259 80.0219 131.281 83.2582 118.073C86.8339 103.478 86.5327 85.2993 87.0124 74.3351C87.9379 53.1912 104.168 36.0141 125.334 36.0141C146.499 36.0141 162.113 53.2272 163.655 74.3351C164.486 85.7144 166.328 104.591 169.71 119.57Z" fill="white"/>
<path d="M167.404 158.867C163.658 158.867 161.797 156.672 159.996 154.548C158.273 152.515 156.645 150.595 153.378 150.595C150.11 150.595 148.485 152.515 146.759 154.548C144.959 156.67 143.098 158.867 139.353 158.867C135.607 158.867 133.746 156.672 131.947 154.548C130.223 152.515 128.595 150.595 125.329 150.595C122.063 150.595 120.436 152.515 118.711 154.548C116.911 156.67 115.05 158.867 111.304 158.867C107.558 158.867 105.697 156.672 103.9 154.55C102.176 152.517 100.549 150.597 97.2822 150.597C94.0158 150.597 92.3892 152.517 90.6652 154.55C88.8659 156.673 87.005 158.87 83.2599 158.87C79.5348 158.87 76.7656 157.051 74.7939 153.308C72.2935 148.563 75.2966 140.172 78.4766 131.29C80.0558 126.878 81.6877 122.316 82.758 117.953C85.6178 106.28 85.9798 92.5652 86.2703 81.544C86.3387 78.9374 86.4037 76.4748 86.4997 74.315C86.9584 63.8489 91.1197 54.108 98.2188 46.8859C101.747 43.2701 105.965 40.3992 110.624 38.4435C115.282 36.4877 120.285 35.4868 125.337 35.5001C130.357 35.4882 135.326 36.4922 139.948 38.4516C144.569 40.411 148.746 43.2854 152.227 46.9015C159.162 54.0419 163.405 63.7729 164.174 74.3001C164.915 84.4508 166.686 103.814 170.218 119.459C171.416 124.765 172.757 129.452 173.94 133.588C176.411 142.223 178.196 148.462 176.425 152.709C175.463 155.009 173.017 158.867 167.404 158.867ZM153.378 149.563C157.124 149.563 158.985 151.758 160.785 153.882C162.509 155.915 164.137 157.835 167.404 157.835C172.417 157.835 174.608 154.373 175.468 152.31C177.099 148.396 175.353 142.303 172.942 133.87C171.757 129.721 170.41 125.02 169.206 119.685C165.659 103.974 163.882 84.5529 163.139 74.3739C161.563 52.8003 145.31 36.5318 125.333 36.5318C105.063 36.5318 88.4569 53.147 87.5268 74.3586C87.4328 76.5092 87.3678 78.9672 87.2974 81.5693C87.0211 92.0556 86.6422 106.417 83.7561 118.197C82.6747 122.612 81.0321 127.2 79.4442 131.637C76.3432 140.299 73.4143 148.482 75.7029 152.826C77.4789 156.196 79.9488 157.834 83.2542 157.834C86.5203 157.834 88.1472 155.914 89.8712 153.881C91.6706 151.758 93.5314 149.561 97.2765 149.561C101.022 149.561 102.883 151.756 104.683 153.881C106.406 155.914 108.034 157.834 111.3 157.834C114.567 157.834 116.195 155.914 117.918 153.881C119.719 151.758 121.579 149.561 125.325 149.561C129.07 149.561 130.932 151.757 132.731 153.881C134.455 155.914 136.082 157.834 139.349 157.834C142.616 157.834 144.244 155.914 145.967 153.881C147.771 151.759 149.632 149.563 153.378 149.563Z" fill="#292A2E"/>
<path d="M110.934 76.8074C113.28 76.8074 115.181 74.9056 115.181 72.5596C115.181 70.2137 113.28 68.3119 110.934 68.3119C108.588 68.3119 106.686 70.2137 106.686 72.5596C106.686 74.9056 108.588 76.8074 110.934 76.8074Z" fill="#292A2E"/>
<path d="M140.061 76.8074C142.407 76.8074 144.309 74.9056 144.309 72.5596C144.309 70.2137 142.407 68.3119 140.061 68.3119C137.715 68.3119 135.813 70.2137 135.813 72.5596C135.813 74.9056 137.715 76.8074 140.061 76.8074Z" fill="#292A2E"/>
<path d="M133.106 84.0243C133.351 84.0237 133.593 84.0777 133.815 84.1825C134.036 84.2873 134.232 84.4402 134.387 84.63C134.542 84.8198 134.653 85.0419 134.711 85.28C134.77 85.518 134.775 85.7662 134.725 86.0063C133.815 90.2651 130.03 92.9422 125.499 92.9422C120.968 92.9422 117.183 90.2663 116.272 86.0063C116.223 85.7661 116.228 85.518 116.286 85.2799C116.345 85.0418 116.456 84.8197 116.611 84.6298C116.766 84.44 116.962 84.2871 117.183 84.1824C117.405 84.0776 117.647 84.0236 117.892 84.0243H133.106Z" fill="white"/>
<path d="M125.498 93.4591C120.617 93.4591 116.706 90.5077 115.767 86.1143C115.7 85.8015 115.704 85.4777 115.779 85.1667C115.854 84.8558 115.997 84.5656 116.199 84.3176C116.403 84.0647 116.661 83.8607 116.954 83.7208C117.247 83.5809 117.567 83.5085 117.892 83.5091H133.106C133.431 83.5086 133.751 83.581 134.044 83.7209C134.337 83.8608 134.595 84.0648 134.799 84.3176C135.001 84.5657 135.144 84.8558 135.219 85.1668C135.294 85.4777 135.298 85.8015 135.232 86.1143C134.29 90.5077 130.379 93.4591 125.498 93.4591ZM117.891 84.5412C117.721 84.5411 117.552 84.5792 117.398 84.6528C117.244 84.7263 117.109 84.8335 117.002 84.9663C116.897 85.0949 116.822 85.2454 116.783 85.4067C116.745 85.568 116.742 85.736 116.777 85.8983C117.611 89.8024 121.116 92.4255 125.498 92.4255C129.879 92.4255 133.384 89.8024 134.219 85.8983C134.253 85.7359 134.251 85.5679 134.212 85.4066C134.172 85.2453 134.098 85.0948 133.993 84.9663C133.886 84.8335 133.75 84.7263 133.597 84.6527C133.443 84.5792 133.274 84.5411 133.104 84.5412H117.891Z" fill="#292A2E"/>
<path d="M225.346 201.544C202.418 231.605 166.225 251.001 125.502 251.001C84.779 251.001 48.586 231.605 25.6577 201.544C51.8314 191.697 86.9235 185.676 125.502 185.676C164.08 185.676 199.17 191.697 225.346 201.544Z" fill="#367CFF"/>
<path d="M235.879 65.7288L171.471 65.4536C171.471 54.6966 177.53 52.5788 183.971 50.8319C190.412 49.0849 193.31 37.2614 204.502 36.5886C211.112 36.1911 214.579 37.8922 217.45 40.0825C217.453 40.0864 217.453 40.0902 217.457 40.0902C224.65 47.8292 230.839 56.4431 235.879 65.7288Z" fill="white"/>
<path d="M52.1539 145.657L1.64883 145.875C0.786156 140.602 0.26265 135.278 0.0815428 129.938C11.1443 128.371 10.0128 119.579 23.2239 120.378C33.0253 120.966 35.5712 131.322 41.2096 132.851C46.848 134.38 52.1539 136.24 52.1539 145.657Z" fill="white"/>
</svg>
