<svg width="20" height="20" viewBox="0 0 20 20" fill="none" xmlns="http://www.w3.org/2000/svg">
<path d="M18.0682 19.6591L11.7045 13.2955C11.1364 13.75 10.483 14.1099 9.74432 14.375C9.00568 14.6402 8.2197 14.7727 7.38637 14.7727C5.32197 14.7727 3.575 14.058 2.14546 12.6284C0.715152 11.1981 0 9.45076 0 7.38637C0 5.32197 0.715152 3.57462 2.14546 2.14432C3.575 0.714773 5.32197 0 7.38637 0C9.45076 0 11.1981 0.714773 12.6284 2.14432C14.058 3.57462 14.7727 5.32197 14.7727 7.38637C14.7727 8.2197 14.6402 9.00568 14.375 9.74432C14.1099 10.483 13.75 11.1364 13.2955 11.7045L19.6875 18.0966C19.8958 18.3049 20 18.5606 20 18.8636C20 19.1667 19.8864 19.4318 19.6591 19.6591C19.4508 19.8674 19.1856 19.9716 18.8636 19.9716C18.5417 19.9716 18.2765 19.8674 18.0682 19.6591ZM7.38637 12.5C8.80682 12.5 10.0144 12.003 11.0091 11.0091C12.003 10.0144 12.5 8.80682 12.5 7.38637C12.5 5.96591 12.003 4.75833 11.0091 3.76364C10.0144 2.7697 8.80682 2.27273 7.38637 2.27273C5.96591 2.27273 4.75833 2.7697 3.76364 3.76364C2.7697 4.75833 2.27273 5.96591 2.27273 7.38637C2.27273 8.80682 2.7697 10.0144 3.76364 11.0091C4.75833 12.003 5.96591 12.5 7.38637 12.5Z" fill="#AAAAAA"/>
</svg>
