<svg width="10" height="13" viewBox="0 0 10 13" fill="none" xmlns="http://www.w3.org/2000/svg">
<path d="M5 0C2.25 0 0 2.25 0 5C0 8.375 4.375 12.1875 4.5625 12.375C4.6875 12.4375 4.875 12.5 5 12.5C5.125 12.5 5.3125 12.4375 5.4375 12.375C5.625 12.1875 10 8.375 10 5C10 2.25 7.75 0 5 0ZM5 11.0625C3.6875 9.8125 1.25 7.125 1.25 5C1.25 2.9375 2.9375 1.25 5 1.25C7.0625 1.25 8.75 2.9375 8.75 5C8.75 7.0625 6.3125 9.8125 5 11.0625ZM5 2.5C3.625 2.5 2.5 3.625 2.5 5C2.5 6.375 3.625 7.5 5 7.5C6.375 7.5 7.5 6.375 7.5 5C7.5 3.625 6.375 2.5 5 2.5ZM5 6.25C4.3125 6.25 3.75 5.6875 3.75 5C3.75 4.3125 4.3125 3.75 5 3.75C5.6875 3.75 6.25 4.3125 6.25 5C6.25 5.6875 5.6875 6.25 5 6.25Z" fill="#AAAAAA"/>
</svg>
