<svg width="34" height="31" viewBox="0 0 34 31" fill="none" xmlns="http://www.w3.org/2000/svg">
<path d="M17 6.73125C17.4481 6.73125 17.8919 6.80933 18.3059 6.96104C18.7199 7.11275 19.0961 7.3351 19.413 7.61542C19.7299 7.89574 19.9812 8.22852 20.1527 8.59477C20.3242 8.96103 20.4125 9.35357 20.4125 9.75C20.4125 10.1464 20.3242 10.539 20.1527 10.9052C19.9812 11.2715 19.7299 11.6043 19.413 11.8846C19.0961 12.1649 18.7199 12.3873 18.3059 12.539C17.8919 12.6907 17.4481 12.7688 17 12.7688C16.0949 12.7688 15.227 12.4507 14.587 11.8846C13.947 11.3185 13.5875 10.5506 13.5875 9.75C13.5875 8.94938 13.947 8.18155 14.587 7.61542C15.227 7.0493 16.0949 6.73125 17 6.73125ZM17 19.6687C21.8263 19.6687 26.9125 21.7675 26.9125 22.6875V24.2688H7.0875V22.6875C7.0875 21.7675 12.1737 19.6687 17 19.6687ZM17 4C13.4087 4 10.5 6.57312 10.5 9.75C10.5 12.9269 13.4087 15.5 17 15.5C20.5912 15.5 23.5 12.9269 23.5 9.75C23.5 6.57312 20.5912 4 17 4ZM17 16.9375C12.6613 16.9375 4 18.8637 4 22.6875V27H30V22.6875C30 18.8637 21.3388 16.9375 17 16.9375Z" fill="black"/>
</svg>
