<svg width="33" height="28" viewBox="0 0 33 28" fill="none" xmlns="http://www.w3.org/2000/svg">
<path d="M0 3.5C0 2.57174 0.346331 1.6815 0.962803 1.02513C1.57928 0.368749 2.41539 0 3.28722 0H29.5849C30.4568 0 31.2929 0.368749 31.9094 1.02513C32.5258 1.6815 32.8722 2.57174 32.8722 3.5V24.5C32.8722 25.4283 32.5258 26.3185 31.9094 26.9749C31.2929 27.6313 30.4568 28 29.5849 28H3.28722C2.41539 28 1.57928 27.6313 0.962803 26.9749C0.346331 26.3185 0 25.4283 0 24.5V3.5ZM5.78386 3.5L16.4361 13.4242L27.0883 3.5H5.7855H5.78386ZM29.5849 5.82575L17.5192 17.0678C17.2195 17.3474 16.8346 17.5015 16.4361 17.5015C16.0376 17.5015 15.6527 17.3474 15.3529 17.0678L3.28722 5.82575V24.5H29.5849V5.82575Z" fill="#3484F0"/>
</svg>
