<svg width="33" height="32" viewBox="0 0 33 32" fill="none" xmlns="http://www.w3.org/2000/svg">
<path d="M16.5 0C16.8063 0.00016359 17.1066 0.0856046 17.3671 0.246754C17.6276 0.407903 17.8381 0.638398 17.975 0.912423L22.2319 9.42287L31.5871 10.7824C31.8919 10.8267 32.1782 10.9553 32.4136 11.1538C32.649 11.3523 32.8242 11.6128 32.9193 11.9056C33.0144 12.1985 33.0257 12.5122 32.9518 12.8111C32.8779 13.1101 32.7218 13.3824 32.5012 13.5972L25.6919 20.2366L27.223 29.5985C27.2722 29.9015 27.2359 30.2123 27.1181 30.4958C27.0003 30.7794 26.8057 31.0244 26.5563 31.2034C26.3068 31.3824 26.0124 31.4882 25.706 31.509C25.3997 31.5298 25.0937 31.4647 24.8223 31.321L16.5 26.9057L8.17763 31.321C7.90629 31.4647 7.60025 31.5298 7.29393 31.509C6.9876 31.4882 6.69316 31.3824 6.4437 31.2034C6.19425 31.0244 5.99968 30.7794 5.88189 30.4958C5.7641 30.2123 5.72776 29.9015 5.77696 29.5985L7.30811 20.2366L0.498764 13.5972C0.27816 13.3824 0.122086 13.1101 0.0481987 12.8111C-0.0256887 12.5122 -0.0144409 12.1985 0.0806698 11.9056C0.175781 11.6128 0.350958 11.3523 0.586385 11.1538C0.821811 10.9553 1.10809 10.8267 1.41284 10.7824L10.7681 9.42287L15.0249 0.912423C15.1619 0.638398 15.3724 0.407903 15.6329 0.246754C15.8934 0.0856046 16.1937 0.00016359 16.5 0ZM16.5 5.33924L13.3354 11.6685C13.2166 11.9065 13.0421 12.1123 12.8266 12.2683C12.6111 12.4243 12.3611 12.5259 12.0979 12.5644L5.19452 13.5675L10.2269 18.4728C10.417 18.6581 10.5597 18.8866 10.6427 19.1388C10.7257 19.391 10.7467 19.6595 10.7037 19.9215L9.57019 26.8463L15.7262 23.5794C15.9645 23.4529 16.2302 23.3867 16.5 23.3867C16.7698 23.3867 17.0355 23.4529 17.2738 23.5794L23.4298 26.8463L22.2963 19.9215C22.2536 19.6597 22.2747 19.3916 22.3577 19.1397C22.4407 18.8878 22.5832 18.6596 22.7731 18.4745L27.8054 13.5675L20.9037 12.5644C20.6405 12.5259 20.3905 12.4243 20.175 12.2683C19.9596 12.1123 19.785 11.9065 19.6662 11.6685L16.5 5.33924Z" fill="#494B4A"/>
</svg>
