<svg width="302" height="267" viewBox="0 0 302 267" fill="none" xmlns="http://www.w3.org/2000/svg">
<path d="M150.999 266.976C224.722 266.976 284.487 207.211 284.487 133.488C284.487 59.7646 224.722 0 150.999 0C77.2758 0 17.5112 59.7646 17.5112 133.488C17.5112 207.211 77.2758 266.976 150.999 266.976Z" fill="white"/>
<path opacity="0.1" d="M150.999 266.976C224.722 266.976 284.487 207.211 284.487 133.488C284.487 59.7646 224.722 0 150.999 0C77.2758 0 17.5112 59.7646 17.5112 133.488C17.5112 207.211 77.2758 266.976 150.999 266.976Z" fill="#367CFF"/>
<path d="M64.2447 178.827L0.406494 178.634L0.669156 91.9106L44.8118 92.0444L64.4476 111.8L64.2447 178.827Z" fill="white"/>
<path opacity="0.3" d="M44.812 92.0439L44.7522 111.74L64.4478 111.799L44.812 92.0439Z" fill="#367CFF"/>
<path d="M64.8494 111.775C64.847 111.74 64.84 111.705 64.8287 111.671C64.8242 111.658 64.8209 111.645 64.8152 111.632C64.7963 111.588 64.7694 111.548 64.736 111.513L45.1002 91.7576C45.0656 91.7236 45.0253 91.6961 44.981 91.6763C44.9687 91.671 44.9561 91.6664 44.9432 91.6625C44.9091 91.6506 44.8735 91.6435 44.8375 91.6413C44.829 91.6413 44.8212 91.6361 44.8127 91.6361L0.670479 91.5039C0.562642 91.5039 0.459223 91.5467 0.382971 91.623C0.306719 91.6992 0.263882 91.8027 0.263882 91.9105L0 178.632C0 178.74 0.0428378 178.844 0.11909 178.92C0.195341 178.996 0.298761 179.039 0.406597 179.039L64.2423 179.234C64.3502 179.234 64.4536 179.191 64.5299 179.115C64.6061 179.038 64.6489 178.935 64.6489 178.827L64.8522 111.8C64.8543 111.792 64.8498 111.784 64.8494 111.775ZM45.2136 93.0274L54.2807 102.146L63.4674 111.389L45.1599 111.333L45.2136 93.0274ZM0.813194 178.228L1.07342 92.3183L44.4024 92.4497L44.3443 111.739C44.3443 111.846 44.3871 111.95 44.4634 112.026C44.5396 112.102 44.6431 112.145 44.7509 112.145L64.0399 112.204L63.8394 178.418L0.813194 178.228Z" fill="#262626"/>
<path d="M194.388 175.357L107.334 175.093L107.692 56.8315L167.888 57.0141L194.665 83.9536L194.388 175.357Z" fill="white"/>
<path opacity="0.3" d="M167.888 57.0142L167.806 83.8723L194.665 83.9537L167.888 57.0142Z" fill="#367CFF"/>
<path d="M195.066 83.9295C195.064 83.894 195.057 83.8591 195.046 83.8254C195.041 83.812 195.038 83.7994 195.032 83.7847C195.013 83.7406 194.986 83.7003 194.953 83.6656L168.176 56.7261C168.142 56.6921 168.101 56.6646 168.057 56.6448C168.044 56.6391 168.032 56.6358 168.019 56.6314C167.985 56.6196 167.95 56.6123 167.914 56.6098C167.905 56.6098 167.897 56.6049 167.889 56.6049L107.693 56.4224C107.585 56.4224 107.482 56.4652 107.406 56.5415C107.33 56.6177 107.287 56.7211 107.287 56.829L106.928 175.09C106.928 175.198 106.971 175.301 107.048 175.378C107.124 175.454 107.227 175.497 107.335 175.497L194.388 175.761C194.495 175.761 194.599 175.718 194.675 175.642C194.751 175.565 194.794 175.462 194.794 175.354L195.071 83.951C195.071 83.9461 195.067 83.9384 195.066 83.9295ZM168.29 57.9971L193.683 83.5444L168.213 83.4672L168.29 57.9971ZM107.742 174.688L108.097 57.2396L167.48 57.4197L167.398 83.8713C167.398 83.9792 167.441 84.0826 167.517 84.1588C167.594 84.2351 167.697 84.2779 167.805 84.2779L194.257 84.3592L193.982 174.949L107.742 174.688Z" fill="#262626"/>
<path d="M301.389 178.827L237.551 178.634L237.813 91.9106L281.956 92.0444L301.592 111.8L301.389 178.827Z" fill="white"/>
<path opacity="0.3" d="M281.956 92.0439L281.896 111.74L301.592 111.799L281.956 92.0439Z" fill="#367CFF"/>
<path d="M301.993 111.775C301.991 111.739 301.985 111.704 301.973 111.67C301.969 111.657 301.965 111.645 301.959 111.632C301.94 111.588 301.914 111.547 301.88 111.513L282.244 91.7573C282.21 91.7233 282.17 91.6958 282.125 91.676C282.113 91.6703 282.1 91.6666 282.087 91.6622C282.053 91.6503 282.018 91.6432 281.982 91.641C281.973 91.641 281.966 91.6357 281.957 91.6357L237.815 91.502C237.707 91.502 237.603 91.5448 237.527 91.621C237.451 91.6973 237.408 91.8007 237.408 91.9086L237.145 178.632C237.145 178.739 237.188 178.843 237.264 178.919C237.341 178.995 237.444 179.038 237.552 179.038L301.39 179.232C301.498 179.232 301.601 179.189 301.678 179.113C301.754 179.036 301.797 178.933 301.797 178.825L302 111.798C301.998 111.792 301.994 111.784 301.993 111.775ZM282.359 93.0271L291.423 102.146L300.611 111.389L282.304 111.333L282.359 93.0271ZM237.959 178.228L238.219 92.318L281.549 92.4493L281.49 111.738C281.49 111.846 281.533 111.95 281.609 112.026C281.685 112.102 281.789 112.145 281.897 112.145L301.186 112.203L300.985 178.418L237.959 178.228Z" fill="#262626"/>
<path d="M129.256 125.749C132.621 125.749 135.35 123.021 135.35 119.655C135.35 116.289 132.621 113.561 129.256 113.561C125.89 113.561 123.162 116.289 123.162 119.655C123.162 123.021 125.89 125.749 129.256 125.749Z" fill="#292A2E"/>
<path d="M171.043 125.749C174.408 125.749 177.137 123.021 177.137 119.655C177.137 116.289 174.408 113.561 171.043 113.561C167.677 113.561 164.948 116.289 164.948 119.655C164.948 123.021 167.677 125.749 171.043 125.749Z" fill="#292A2E"/>
<path d="M158.319 136.509H141.979C141.871 136.509 141.768 136.466 141.691 136.389C141.615 136.313 141.572 136.21 141.572 136.102C141.572 135.994 141.615 135.891 141.691 135.814C141.768 135.738 141.871 135.695 141.979 135.695H158.319C158.427 135.695 158.53 135.738 158.607 135.814C158.683 135.891 158.726 135.994 158.726 136.102C158.726 136.21 158.683 136.313 158.607 136.389C158.53 136.466 158.427 136.509 158.319 136.509Z" fill="#262626"/>
<path d="M122.969 137.087C125.971 137.087 128.405 135.806 128.405 134.226C128.405 132.646 125.971 131.365 122.969 131.365C119.967 131.365 117.533 132.646 117.533 134.226C117.533 135.806 119.967 137.087 122.969 137.087Z" fill="white"/>
<path d="M177.329 137.087C180.331 137.087 182.765 135.806 182.765 134.226C182.765 132.646 180.331 131.365 177.329 131.365C174.326 131.365 171.893 132.646 171.893 134.226C171.893 135.806 174.326 137.087 177.329 137.087Z" fill="white"/>
<g opacity="0.4">
<path d="M122.969 137.087C125.971 137.087 128.405 135.806 128.405 134.226C128.405 132.646 125.971 131.365 122.969 131.365C119.967 131.365 117.533 132.646 117.533 134.226C117.533 135.806 119.967 137.087 122.969 137.087Z" fill="#367CFF"/>
<path d="M177.329 137.087C180.331 137.087 182.765 135.806 182.765 134.226C182.765 132.646 180.331 131.365 177.329 131.365C174.326 131.365 171.893 132.646 171.893 134.226C171.893 135.806 174.326 137.087 177.329 137.087Z" fill="#367CFF"/>
</g>
<path d="M194.795 84.9229C184.419 73.0094 169.735 65.7056 153.973 64.618C138.212 63.5304 122.664 68.7482 110.749 79.1236C90.844 96.4597 84.7272 125.282 95.8773 149.221C98.1162 154.018 100.987 158.494 104.413 162.529L105.145 163.396L50.5828 221.3C49.585 222.374 49.0525 223.8 49.1015 225.265C49.1504 226.731 49.7768 228.117 50.844 229.123C51.9112 230.128 53.3327 230.671 54.7984 230.632C56.2642 230.594 57.6553 229.978 58.6684 228.918L113.217 171.023L114.128 171.705C125.9 180.535 140.523 184.695 155.179 183.385C169.836 182.074 183.489 175.386 193.507 164.608C203.526 153.83 209.201 139.726 209.439 125.013C209.677 110.3 204.462 96.0193 194.797 84.9229H194.795ZM198.216 127.383C197.371 139.616 191.921 151.075 182.963 159.449C174.005 167.823 162.206 172.491 149.944 172.511C148.811 172.511 147.675 172.47 146.536 172.389C138.576 171.849 130.872 169.352 124.108 165.122C117.344 160.891 111.729 155.057 107.76 148.136C103.791 141.215 101.591 133.422 101.355 125.447C101.12 117.472 102.856 109.563 106.409 102.42C109.963 95.2768 115.224 89.121 121.726 84.4984C128.229 79.8757 135.771 76.929 143.685 75.9197C151.599 74.9103 159.64 75.8694 167.095 78.712C174.549 81.5546 181.187 86.1928 186.42 92.2153C190.612 97.0072 193.812 102.582 195.837 108.619C197.862 114.655 198.671 121.033 198.216 127.383Z" fill="#367CFF"/>
</svg>
