<svg width="32" height="32" viewBox="0 0 32 32" fill="none" xmlns="http://www.w3.org/2000/svg">
<path d="M25.3334 17.3333H10.44L16.9467 23.84C17.4667 24.36 17.4667 25.2133 16.9467 25.7333C16.4267 26.2533 15.5867 26.2533 15.0667 25.7333L6.28002 16.9466C6.15642 16.8233 6.05835 16.6767 5.99144 16.5155C5.92454 16.3542 5.8901 16.1812 5.8901 16.0066C5.8901 15.832 5.92454 15.6591 5.99144 15.4978C6.05835 15.3365 6.15642 15.19 6.28002 15.0666L15.0534 6.26662C15.1768 6.14318 15.3233 6.04526 15.4846 5.97845C15.6459 5.91164 15.8188 5.87726 15.9934 5.87726C16.1679 5.87726 16.3408 5.91164 16.5021 5.97845C16.6634 6.04526 16.8099 6.14318 16.9334 6.26662C17.0568 6.39006 17.1547 6.53661 17.2215 6.69789C17.2883 6.85918 17.3227 7.03205 17.3227 7.20662C17.3227 7.38119 17.2883 7.55406 17.2215 7.71534C17.1547 7.87663 17.0568 8.02318 16.9334 8.14662L10.44 14.6666H25.3334C26.0667 14.6666 26.6667 15.2666 26.6667 16C26.6667 16.7333 26.0667 17.3333 25.3334 17.3333Z" fill="black"/>
</svg>
