<svg width="33" height="32" viewBox="0 0 33 32" fill="none" xmlns="http://www.w3.org/2000/svg">
<path d="M15.4017 0.417273C15.7044 0.148464 16.0952 0 16.5 0C16.9048 0 17.2956 0.148464 17.5983 0.417273L32.4851 13.65C32.7963 13.9456 32.9804 14.3506 32.9985 14.7794C33.0166 15.2083 32.8673 15.6273 32.5822 15.9481C32.297 16.2689 31.8983 16.4663 31.4703 16.4986C31.0423 16.5309 30.6185 16.3956 30.2885 16.1212L29.7327 15.6299V28.1183C29.7327 28.9957 29.3842 29.8371 28.7638 30.4575C28.1434 31.0779 27.3019 31.4265 26.4245 31.4265H6.57545C5.69807 31.4265 4.85662 31.0779 4.23621 30.4575C3.61581 29.8371 3.26727 28.9957 3.26727 28.1183V15.6299L2.7115 16.1212C2.38144 16.3956 1.95765 16.5309 1.52965 16.4986C1.10165 16.4663 0.702964 16.2689 0.417809 15.9481C0.132655 15.6273 -0.0166361 15.2083 0.00147453 14.7794C0.0195852 14.3506 0.203679 13.9456 0.514866 13.65L15.4017 0.417273ZM6.57545 12.6857V28.1183H11.5377V19.8479C11.5377 19.4092 11.712 18.9884 12.0222 18.6782C12.3324 18.368 12.7531 18.1938 13.1918 18.1938H19.8082C20.2469 18.1938 20.6676 18.368 20.9778 18.6782C21.288 18.9884 21.4623 19.4092 21.4623 19.8479V28.1183H26.4245V12.6873L16.5 3.86605L6.57545 12.6873V12.6857ZM18.1541 28.1183V21.502H14.8459V28.1183H18.1541Z" fill="#494B4A"/>
</svg>
